<?xml version="1.0" encoding="UTF-8"?>
<svg id="_レイヤー_1" data-name="レイヤー 1" xmlns="http://www.w3.org/2000/svg" viewBox="0 0 1812.75 904.7">
  <defs>
    <style>
      .cls-1 {
        fill: #eff9f9;
      }

      .cls-2 {
        fill: #e8b385;
      }

      .cls-3 {
        fill: #f6fbf8;
      }

      .cls-4 {
        fill: #2f9fd6;
      }

      .cls-5 {
        fill: #69b1d2;
      }

      .cls-6 {
        fill: #e3f5f8;
      }

      .cls-7 {
        fill: #66b1d5;
      }

      .cls-8 {
        fill: #b8e2ee;
      }

      .cls-9 {
        fill: #74b5d2;
      }

      .cls-10 {
        fill: #b5e2ee;
      }

      .cls-11 {
        fill: #eaf6f8;
      }

      .cls-12 {
        fill: #6cb0d0;
      }

      .cls-13 {
        fill: #aedfee;
      }

      .cls-14 {
        fill: #bce2ec;
      }

      .cls-15 {
        fill: #60b2d9;
      }

      .cls-16 {
        fill: #f7fcf9;
      }

      .cls-17 {
        fill: #cce4f0;
      }

      .cls-18 {
        fill: #92d3e7;
      }

      .cls-19 {
        fill: #62b1d8;
      }

      .cls-20 {
        fill: #00b3ec;
      }

      .cls-21 {
        fill: #62b2da;
      }

      .cls-22 {
        fill: #f6b076;
      }
    </style>
  </defs>
  <rect class="cls-20" width="1812.75" height="904.7"/>
  <g>
    <path class="cls-5" d="M1526.22,370.26l23.97-11.97c.53,6.65-3.19,27.95,7.01,27.95h62.96v66.91l3.21,2.85,6.79-1.86v-74.9l-9.92-3.07-8.99-103.88c-2.05-2.93-30.94-3.98-32.73,1.42l-8.35,102.53-6.75-.22-2.94-3.05-2.36-28.63c-4.93-3.42-30.62,16.79-35.9,19.92-2.08,1.23-12.91,7.16-13.98,5.98l-2.2-25.77c-1.49-.59-3.07-.37-4.61-.14-3.37.5-52.77,31.03-54.17,33.9l.89,77.04,8.12.87v-73.9l39.01-23.95c4.07-.52,2.6.16,2.97,2.94.73,5.52-2.49,21.02,3.23,22.87,5.24,1.7,20.85-9.12,24.75-13.85ZM1500.25,406.2h-26v21.99h26v-21.99ZM1550.21,406.2h-26v21.99h26v-21.99ZM1507.64,484.42c-11.92,2.79-12.62,25.99,5.16,23.29,15.17-2.3,10.08-26.86-5.16-23.29ZM1449.7,486.51c-13.96,4.15-4.57,22.68,5.1,21.31,14.18-2.01,13.37-26.8-5.1-21.31ZM1561.6,486.5c-10.67,3.21-6.86,28.09,10.09,20.13,12.66-5.95,5.24-24.73-10.09-20.13ZM1617.48,486.45c-7.39,2.52-7.85,17.93,2.64,20.83,17.63,4.88,19.8-28.48-2.64-20.83Z"/>
    <path class="cls-12" d="M1202.45,382.24c-9.4,1.41-16.57,2.8-25.98,0v57.92c9.51-2.17,17.13-3.23,25.98,2v-59.92Z"/>
    <path class="cls-19" d="M155.19,645.9c-.03.66,0,1.33,0,2,0,3.33,0,6.66,0,9.99-2.34-.46-5.46.34-7.99-.01-1.51-1.4,3.64-10.12,3.99-11.97h4Z"/>
    <path class="cls-3" d="M1430.29,552.02c-.22.67.29,1.74,0,2h-25.99s0,10,0,10l28.12.86c3.05,2.12,2.1,20.06,1.87,25.09-.48,10.59.44,17.8-7.99,25.97-.59.14-1.32-.08-2,0-1.95.24-8.97.45-9.78-.22-1.04-56.26-76.26-55.25-74.16.22h-97.93c-2.21-7.93-.05-19.43-7.99-23.97-.23-.61.26-1.5,0-2-23.52-32.08-69.17-13.14-65.95,25.98-8,2.63-18.62-6.66-19.98-14-1.77-9.53-1.4-55.54,0-65.91,1.03-7.62,5.13-11.7,12.95-12.02l239.92-.02c15.81,2.46,21.77,15.61,28.93,28.02ZM1306.37,562.01c16.76-.11,40.03,2.46,56.82-.13,14.31-2.21,11.02-20.74,1.71-23.41-10.47-3.01-41.11.02-54.54-.42-26.16-.86-65.56-5.78-90.82-1.88-15.37,2.37-16.03,23.48-4.07,25.8,30.29-.06,60.62.25,90.89.05Z"/>
    <path class="cls-6" d="M1468.26,462.14l163.88,2c38.97,8.98,34.73,57.44-2,65.91h-179.87l-2-9.98,178.7-.18c28.05-3.97,29.77-42.57,1.69-47.28-58.42.12-117.06-1.78-175.48-.56-8.89.18-17.01,4.44-26.65-.15l-.14-7.63c13.77-3.11,27.84-1.87,41.86-2.12Z"/>
    <path class="cls-11" d="M1522.22,364.27c5.28-3.14,30.97-23.35,35.9-19.92l2.36,28.63,2.94,3.05,6.75.22,8.35-102.53c1.79-5.39,30.67-4.35,32.73-1.42l8.99,103.88,9.92,3.07v74.9l-6.79,1.86-3.21-2.85v-66.91h-62.96c-10.2,0-6.48-21.3-7.01-27.95l-23.97,11.97h-3.99s0-5.99,0-5.99ZM1601.95,280.6l-12.45-.3-2.78,5.52-6.6,83.46,3.36,4.68,26.67,2.28-8.19-95.64Z"/>
    <path class="cls-6" d="M1526.22,370.26c-3.9,4.72-19.5,15.55-24.75,13.85-5.72-1.85-2.5-17.36-3.23-22.87-.37-2.77,1.1-3.46-2.97-2.94l-39.01,23.95v73.9l-8.12-.87-.89-77.04c1.4-2.87,50.81-33.4,54.17-33.9,1.54-.23,3.12-.45,4.61.14l2.2,25.77c1.06,1.18,11.9-4.75,13.98-5.98v6s4,0,4,0Z"/>
    <rect class="cls-11" x="1524.21" y="406.2" width="26" height="21.99"/>
    <rect class="cls-1" x="1474.24" y="406.2" width="26" height="21.99"/>
    <path class="cls-10" d="M1507.64,484.42c15.24-3.57,20.33,20.99,5.16,23.29-17.78,2.7-17.08-20.5-5.16-23.29Z"/>
    <path class="cls-13" d="M1561.6,486.5c15.33-4.61,22.74,14.18,10.09,20.13-16.94,7.96-20.76-16.92-10.09-20.13Z"/>
    <path class="cls-10" d="M1617.48,486.45c22.44-7.65,20.28,25.71,2.64,20.83-10.49-2.9-10.03-18.31-2.64-20.83Z"/>
    <path class="cls-13" d="M1449.7,486.51c18.46-5.49,19.28,19.3,5.1,21.31-9.67,1.37-19.06-17.16-5.1-21.31Z"/>
    <path class="cls-21" d="M1638.14,446.16c-.16,1.28.19,2.69,0,3.99h-3.99c0-1.32-.11-2.65.01-3.98h3.99Z"/>
    <path class="cls-1" d="M155.19,645.9c.21-3.97-.16-8.02-.01-12,1.47-1.53,19.12,2.97,21.99-2.98V219.46c0-1.23,3.26-2.94,5-3.12,10.55-1.1,6.3,13.08,6.99,20.1h235.83v13.98h-235.83l1.89,110.98c3.24,1.61,6.74.68,10.1.87,5.93.35,12.04-.07,17.99,0,19.95.23,40.01-.06,59.96,0,5.98.02,12-.02,17.99,0,19.29.07,38.67-.09,57.96,0,5.98.03,12-.02,17.99,0,16.63.06,33.35-.05,49.97,0v7.97s-21.99,2.01-21.99,2.01c-2.18.39-4.48,2.37-6,3.99h-205.86c2.08,15.32-3.52,114.32,2.01,119.84,8.2,8.19,204.92-2.13,231.84,2,3.39,3.46,1.86,7.43,2.01,11.99l-235.85-.02v123.86c3.98.11,8.02-.16,12-.01,5.96.22,12.02-.05,17.99,0,19.29.15,38.67-.05,57.96,0,6.65.02,13.34,0,19.99,0,19.29,0,38.67.1,57.96,0,5.98-.03,12,.03,17.99,0,11.3-.06,22.67.06,33.97-.01-6.35-22.21,6.48-31.28,28-27.94v-139.83s1.99,0,1.99,0h10s1.99,139.82,1.99,139.82h16s-.01-135.82-.01-135.82c.41-1.01-1.2-3.6,1.25-4.08l10.75.08-.02,139.84,23.99,3.98c.58.58,1.77,1.64,2,2,.6.97,3.39,1.29,3.97,3.53.67,2.64-.23,5.75.03,8.45.19,1.96-.2,4.03,0,5.99.14,1.31-.11,2.68.01,3.98,2.07.79,3.74-1.97,3.98-1.99,5.06-.43,10.42,1.8,15.99,2,.67.02,1.33-.02,2,0,5.97.17,12.01-.09,17.99,0,8.63.13,17.34-.03,25.98,0,5.98.02,12,.02,17.99,0,8.64-.03,17.34.08,25.98,0,5.96-.06,12.04.28,17.99,0,3.32-.15,6.69.13,10,.01v-123.86s-131.92.01-131.92.01l-2-2v-7.99c17.1-4.45,36.3-.86,53.96-2,1.03.16,3.03.19,4,0,1.07-.22,1.74-.95,2-2,.57-.13,1.31.04,2,0,19.2-.99,42.33,3.63,63.13,2.11,3.26-.24,4.17.53,6.82-2.11,5.52-5.51-.05-104.52,2-119.84h-128.91l-3.01-13.99c5.31-.1,10.69.14,16,0,5.97-.15,12.01.04,17.99,0,8.64-.06,17.34.02,25.98,0,5.98-.02,12,.02,17.99,0,8.64-.03,17.35.08,25.98,0,5.96-.06,12.04.28,17.99,0,3.32-.16,6.69.13,10,.01.1-5.31-.16-10.68-.01-15.99.08-2.66-.04-5.33,0-7.99.03-2,.01-4,0-5.99-.02-3.33.08-6.66,0-9.99-.13-5.31.16-10.67,0-15.98v-55.94s-133.9.01-133.9.01v-13.99s133.92.02,133.92.02c.56-8.48-3.9-22.21,8.95-20.07,1.68.28,5.03,1.74,5.03,3.08v414.46h20s0,13.99,0,13.99H155.19c0-.67-.03-1.35,0-2.01ZM494.95,633.92l-.28-12.71-3-2.99-73.8,1.59-.87,14.11h77.94Z"/>
    <path class="cls-1" d="M498.95,218.46c-2.62.23-5.35-.11-7.99,0-3.98.17-8.02-.14-12-.01l-1.99,151.81c-3.26-.91-9.43,1.96-11.99-2v-149.82s-15.99.01-15.99.01l-2,151.8h-11.99v-151.81s-12,.02-12,.02c-1.16-14.49-.28-31.18,17.13-33.84,7.07-1.08,49.89-1.33,55.42.28,9.35,2.73,17.41,28.31,11.48,32.67-2.56,1.49-5.4.64-8.07.87ZM434.99,208.47h61.96c.02-5.27.12-11.49-5.82-13.11-7.71-2.1-36.37-1.84-45.26-.99-10.24.98-11.56,3.67-10.88,14.1Z"/>
    <path class="cls-3" d="M239.13,274.38l.28,14.71c.98,3.42,3.71,2.98,6.67,3.36,2.27.29,4.76-.22,7.05-.08.42-5.85-.6-12.23,0-17.99,6.58.09,21.89-1.34,26.7.27s3.06,7.9,3.28,11.71c.34,5.91,0,12.04,0,17.98v25.97c-1.95,1.96-2.01,1.79-4.79,2.11-12.26,1.38-30.23.05-43.18-.11-7.97-.1-16.02.07-23.99.01v-55.94c.84-.56,1.47-1.71,2.01-2h25.98Z"/>
    <path class="cls-3" d="M432.99,380.25c.67-.02,1.33.03,2,0v17.99s10.84.02,10.84.02l1.14-18.02h27.99s.01,57.95.01,57.95h-67.96c-.71-.59-1.26-1.43-2-2.01,3.6-9.96-2.68-43.16,0-55.93,9.29-.05,18.7.3,27.98,0Z"/>
    <path class="cls-8" d="M498.95,218.46c-1.24,40.2,2.66,81.03-2.21,120.89.14,3.22,4.13,7.93,6.21,10.94v39.95c4.25-.05,6.87-.86,9.99,2l-10.03,1.15.05,70.77h-16c-.14-1.31-1.73-3.76-2-8-.09-1.38.11-6.73,0-9.99-.46-13.24.05-26.69,0-39.95-.02-4.65-.04-9.33,0-13.98.05-5.98-.08-12,0-17.98.2-14.4-2.67-24.12,6.13-34.82l-.14-120.98c2.64-.11,5.37.23,7.99,0Z"/>
    <path class="cls-13" d="M323.07,476.12h49.96c.6,6.46-.43,13.45-.01,19.98,9.25,1.57,45.1-2.99,49.97,1.99-26.92-4.13-223.64,6.2-231.84-2h10c-.1-4.63.13-9.34-.01-13.98-.06-1.95.26-4.16,0-5.99h121.91ZM279.1,496.1c.08-4.3,1.04-9.23-3-11.98h-56.96v11.98h59.96ZM355.05,486.11h-57.96v9.99h57.96v-9.99Z"/>
    <path class="cls-13" d="M235.13,340.3c16.62-.11,33.34.05,49.96,0,5.98-.02,12,0,17.99,0,12.63,0,25.34,0,37.97,0h29.98c1.81,7.64,2.86,13.58,2,21.97-5.98-.02-12,.03-17.99,0v-12c-19.5,1.42-38.57-2.19-57.97-2v13.99c-5.97-.02-11.99.02-17.98,0l-.89-12.09c-2.74-4.1-11.22.06-16.01.19-14.32.41-28.76-.48-43.06-.1v12c-5.94-.07-12.05.35-17.98,0v-21.98c11.29-.04,22.68.09,33.98.01Z"/>
    <path class="cls-10" d="M261.12,442.17c5.3.08,10.7-.25,15.99,0,1.33.06,2.67-.11,3.99-.01v25.98s-69.95,0-69.95,0v-25.98c16.61.2,33.34-.24,49.96.01Z"/>
    <path class="cls-8" d="M219.15,408.21c11.8-1.21,27.69-.17,39.97,0,7.31.1,14.69-.07,21.99-.01-.88,8.12,1.18,18.21-.01,25.98h-69.95c.07-.66-.07-1.34,0-2,.71-6.78-.86-13.88.28-20.69,1.3-3.97,4.63-2.96,7.71-3.28Z"/>
    <path class="cls-10" d="M361.04,442.17c.5.76,1.61,1.33,2,2-.32,4.61.36,9.38,0,13.98-.27,3.46,1.18,8.22-3.28,9.71-5.56,1.86-28.68.28-36.7.27-3.33,0-6.66,0-9.99,0h-17.99c-4.52-4.53-.87-19.08-2.01-25.98h67.96Z"/>
    <path class="cls-10" d="M323.07,408.21c5.98-.02,12.01-.07,17.99,0,1.33.01,2.67-.02,4,0,5.31.09,10.7-.25,15.99,0,4.23,9-.2,16.8,0,25.97h-67.96s.2-25.78.2-25.78c.85-1.48,25.4-.17,29.79-.19Z"/>
    <path class="cls-11" d="M484.96,446.16c.11,3.26-.09,8.6,0,9.99h-93.93v-9.99h93.93Z"/>
    <path class="cls-13" d="M446.98,370.26c-.75,3.16-10.88,3.34-11.99,0h11.99Z"/>
    <path class="cls-9" d="M363.04,444.16c-.39-.67-1.5-1.24-2-2h2c-.04.66.05,1.33,0,2Z"/>
    <path class="cls-8" d="M1166.47,468.13c3.06-25.82,39.86-26.82,43.97,2,.18,1.27-.1,2.69,0,3.99,1.02,12.9-.75,26.92.01,39.96l-14,1.99c-8.84-.93-18.95.66-27.98,0l-2-2c-.05-1.33.07-2.67,0-3.99s.18-2.73,0-3.99c-.39-2.74-1.99-9.48-2-9.99-.04-1.99-.03-4,0-5.99.02-1.33-.03-2.66,0-3.99,0-.32,1.7-2.84,2-5.99.36-3.87-.45-8.17,0-11.98ZM1182.98,462.66c-9.96,10.21,11.86,21.34,11.66,6.47-.1-7.04-6.59-11.66-11.66-6.47Z"/>
    <path class="cls-6" d="M1194.45,328.31c3.13,1.06,7.06.35,9.99,3.99.62.69,1.63,1.38,2,2,4.27,7.1,6.04,19.96,4,27.96-2.97,11.66-24.83,14.77-34.72,9.73-12.89-6.57-10-18.71-14.33-27.63-2.08-4.27-8.86-5.03-6.64-12.73.69-2.38,3.52-2.93,3.72-3.33,5.03-.78,8.22,4.21,13,4.22,5.11,0,14.7-7.64,22.98-4.22ZM1181.79,340.63c-11.62,3.99-3.41,30.27,13.46,19.42,11.49-7.39,1.46-24.54-13.46-19.42Z"/>
    <path class="cls-3" d="M1202.45,382.24v59.92c-8.85-5.23-16.47-4.17-25.98-2v-57.92c9.41,2.8,16.58,1.41,25.98,0Z"/>
    <path class="cls-18" d="M912.65,374.25c4.8.5,19.1,4.19,23.98,5.99.56.21,2.56,1.36,4,2,2.17.96,16.64,8.93,17.99,9.99.48.38,7.61,7.52,7.99,7.99,1.58,1.93,6.55,14.49,8.39,15.56,5.87,3.44,22.82-3.27,29.58,2.41h-195.86c1.39-.73,2.26-1.52,4-2h25.98c1.6-.52,8.23-13.9,9.99-15.98.68-.8,7.4-7.52,7.99-7.99,8.76-6.91,33.01-16.65,43.97-17.98,3.21-.39,8.74-.34,11.99,0ZM960.62,416.2c.3-4.32-4.16-7.32-6.94-10.04-30.09-29.37-76.87-23.42-100.98,10.04h107.92Z"/>
    <path class="cls-11" d="M856.69,392.23c-.6.47-7.32,7.19-7.99,7.99-7.68-3.41-17.99-20.35-24.07-23.05s-18.43,6.42-29.94-5.87c-18.54-19.81,7.58-51.69,31-32.98,15.9,12.69,4.23,23.74,7.96,31.88,3.37,7.33,19.19,13.77,23.03,22.04ZM806.11,344.69c-9.93,3.05-9.35,21.8,1.71,23.6,23.45,3.82,21.27-30.65-1.71-23.6Z"/>
    <path class="cls-17" d="M912.65,342.3c-3.84.56-5.52-3.87-11.99,2,0-6.26-6.99-5.51-10.69-10.5-15.2-20.48,7.48-44.14,28.51-32.28,12.85,7.25,13.95,25.06,3.2,34.82-.86.78-8.49,5.89-9.03,5.96ZM902.08,308.77c-10.14,2.99-10.08,20.15,0,23.11,24.36,7.16,24.34-30.28,0-23.11Z"/>
    <path class="cls-1" d="M912.65,342.3v31.96c-3.25-.34-8.79-.39-11.99,0v-29.96c6.47-5.86,8.15-1.44,11.99-2Z"/>
    <path class="cls-16" d="M1372.33,376.25c3.33,3.44,3.7,6.32,4.13,10.86,2.67,28.32-1.42,62.42-1.16,91.04-.57,1.25-2.07,1.38-2.97,1.96h-129.91c-1.35-.46-2.61-1.53-4-2l2-99.87c.74-.57,1.55-1.83,2-2h129.91ZM1292.38,412.2c-6.15,3.1-10.65,6.13-11.98,13.97l12.67.32,3.31,2.68v36.95h21.98v-39.95c2.75-.91,18.14,2.58,15.97-2.96l-25.17-30.91c-8.6,3.69-13.18,11.91-16.78,19.89Z"/>
    <path class="cls-10" d="M1212.44,585.98c9.2,2.84,11.74,7.58,17.99,13.98v2c-.58,4.97.84,11.32,0,15.98-1.45,8.04-8.87,12.59-13.99,17.96,15.96.08,32-.05,47.97.02,17.96.07,36,.08,53.96,0,15.3-.07,30.67.07,45.97-.02-45.5-41.72,39.16-82.46,37.97-17.96l-9.98,17.97h265.8c-.1,3.32.15,6.68,0,10-.03.66.1,1.36,0,2l-514.73.1c-6.69.37-8.68-4.54-5.96-10.15l2.06-1.93h52.96c-5.85-3.26-8.93-10.9-11.99-13.98-1.84-5.79-2.62-11.91-2-17.98.02-.22,1.54-2.49,2-3.99,1.46-3.32,7.42-10.38,9.99-11.98,2-1.25,3.93-1.37,6-2,7.36-2.24,8.36-2.35,15.99,0ZM1195.01,621.37c14.03,14.12,33.18-11.23,18.58-21.55-13.99-9.9-31.25,8.81-18.58,21.55ZM1371.77,598.36c-10.32,3.03-10.33,22.11-.02,25.14,25.07,7.37,24.1-32.21.02-25.14Z"/>
    <path class="cls-11" d="M808.73,418.2h195.86c17.88,2.14,15.36,33.21,14.08,47.03-2.28,24.79-25.5,18.51-44.06,18.88-4.65.09-9.33-.05-13.99,0-35.88.38-72.04.47-107.92,0-3.99-.05-8,.08-11.99,0-10.78-.21-32.74,2.75-40.05-5.47s-4.31-41.29-1.92-52.45c4.85-5,3.33-4.46,9.99-7.99ZM810.01,428.46c-3.85,1.26-5.74,25.28-5.11,30.48.73,6.02,4.18,13.88,10.88,15.13l190-1.75c4.24-3.34,4.16-37.32,1-41.33-1.3-1.65-3.2-2.48-5.25-2.75l-191.53.22Z"/>
    <path class="cls-18" d="M852.7,484.11c23.16,38.77,85.39,40.77,107.92,0,4.66-.05,9.34.09,13.99,0-1.76,3.56-6.03,13.59-7.99,15.98-.39.47-7.53,7.59-7.99,7.99-5.62,4.78-22.94,12.41-30.34,14.62-4.52,1.35-8.95,1.75-13.63,1.36l-2,2c-3.23-.29-6.84.43-9.99,0-15.92-2.15-33.41-7.52-45.97-17.98-.98-.81-7.16-6.99-7.99-7.99-.23-.28-3.14-4.72-4-5.99-1.59-2.37-2.54-5.49-4-7.99v-2c3.99.08,8-.05,11.99,0Z"/>
    <path class="cls-11" d="M966.61,400.22c-.39-.47-7.51-7.61-7.99-7.99l22.52-22.52c.4-11.58-4.31-22.94,6.42-31.45,24.25-19.25,51.86,13.73,31.87,33.85-11.1,11.17-23.15,2.75-28.78,5.09-5.7,2.37-16.6,19.84-24.03,23.03ZM997.98,344.69c-12.61,3.87-7.74,28.17,9.17,23.24,15.14-4.41,10.7-29.33-9.17-23.24Z"/>
    <path class="cls-11" d="M966.61,500.09l22.06,23.01c7.83,3.54,21.59-7.67,33.01,8.84,15.87,22.96-12.78,47.93-34.1,30.08-13.61-11.39-2.77-22.87-5.9-29.89-2.71-6.09-19.64-16.37-23.06-24.05.47-.4,7.61-7.52,7.99-7.99ZM1000.08,532.36c-14.56,2.77-12.02,27.77,5.09,25.29,15.22-2.2,12.15-28.57-5.09-25.29Z"/>
    <path class="cls-17" d="M898.66,562.01l2,5.99c-7.34,2.69-10.15,26.34,7.05,26.12,16.22-.2,14.41-24.1,4.94-26.12v-7.99h2c16.38,4.67,19.72,29.86,5.93,38.88-24.45,16-48.68-17.48-26.95-35.02,1.96-1.58,4.21-1.33,5.03-1.86Z"/>
    <path class="cls-1" d="M912.65,526.06c-.03,7.31.04,14.66,0,21.97,0,1.33,0,2.66,0,3.99v15.98c-1.55-.33-10.98-.37-11.99,0l-2-5.99c8.08-5.19,2.31-26.6,4-35.95,3.16.43,6.76-.29,9.99,0Z"/>
    <path class="cls-11" d="M856.69,508.08c-3.42,7.68-20.36,17.97-23.06,24.05s6.43,18.42-5.88,29.92c-21.38,19.98-52.3-10.95-34.15-32.13,11.58-13.5,23.97-3.58,31.04-6.82,6.3-2.89,16.24-19.47,24.05-23.01.84,1,7.02,7.18,7.99,7.99ZM806.11,534.44c-9.33,2.87-8.88,16.22-.12,21.35,19.08,11.17,26.12-29.35.12-21.35Z"/>
    <path class="cls-22" d="M1310.37,538.04c2.12,9.97,4.35,16.31-4,23.97-30.27.21-60.6-.11-90.89-.05-11.96-2.32-11.3-23.43,4.07-25.8,25.26-3.9,64.66,1.02,90.82,1.88Z"/>
    <path class="cls-14" d="M1306.37,562.01c8.35-7.66,6.11-14,4-23.97,13.43.44,44.06-2.59,54.54.42,9.31,2.67,12.6,21.2-1.71,23.41-16.79,2.59-40.07.02-56.82.13Z"/>
    <polygon class="cls-14" points="1601.95 280.6 1610.15 376.24 1583.48 373.96 1580.12 369.28 1586.72 285.82 1589.5 280.3 1601.95 280.6"/>
    <path class="cls-13" d="M371.04,611.94c.62,1.27,1.65,2.81,2,3.99v17.98c-5.98.03-12-.03-17.99,0v-12s-56.81-.02-56.81-.02l-1.15,12.02c-6.65,0-13.34.02-19.99,0v-12s-56.81-.02-56.81-.02l-1.15,12.02c-5.97-.05-12.03.22-17.99,0,.68-6.23-.98-14.07,0-19.97.38-2.27,1.94-1.87,2-2h167.88Z"/>
    <path class="cls-13" d="M532.92,476.12c28.17-3.81,64.6,2.52,93.93,0,1.86-.16,4.6.42,6,0,3.43,6.04,1.66,13.33,1.99,19.98h8c-2.65,2.63-3.56,1.87-6.82,2.1-20.8,1.52-43.93-3.11-63.13-2.11l-1.15-10.02-24.84.03v10.01c6.74-1.69,12.82,1.21,18,1.99-17.66,1.14-36.86-2.46-53.96,2v-3.99h18s-.01-17.98-.01-17.98c.76-1.92,2.32-1.77,4-2ZM616.87,486.1h-26v10.01h26v-10.01Z"/>
    <path class="cls-13" d="M538.92,340.3h6c25.71,0,54.7,1.75,79.94,0,2.53-.18,5.82.47,7.99,0,3.42,6.04,1.67,13.33,2,19.97v2c-5.95.28-12.03-.06-17.99,0v-12s-24.83-.02-24.83-.02l-1.15,12.02c-5.98.02-12-.02-17.99,0v-12s-24.83-.02-24.83-.02l-1.15,12.02c-5.98.04-12.01-.15-17.99,0,0-1.33.01-2.66,0-3.99-.06-7.17-.38-10.89,2-17.98h7.99Z"/>
    <polygon class="cls-14" points="494.95 633.92 417 633.92 417.88 619.81 491.67 618.22 494.67 621.21 494.95 633.92"/>
    <path class="cls-13" d="M634.85,613.94h-39.98c-.49,2.01.66,6.91.01,7.99-.11.18-3.42-.84-4.02,1.35-.82,2.96.46,7.35.03,10.63-5.98.02-12,.02-17.99,0v-12s-24.83-.02-24.83-.02l-1.15,12.02c-5.98-.09-12.01.17-17.99,0v-19.97c.41-.75,1.7-1.35,2-2l103.93,2Z"/>
    <path class="cls-14" d="M634.85,613.94v19.97c-5.95.28-12.02-.06-17.99,0v-12s-21.98.01-21.98.01c.65-1.08-.5-5.98-.01-8h39.98Z"/>
    <path class="cls-13" d="M568.9,498.09c.32-.91,1.05-1.78,2-2-.25,1.05-.92,1.78-2,2Z"/>
    <path class="cls-13" d="M512.94,510.08l-2-2,2,2Z"/>
    <polygon class="cls-18" points="436.99 466.13 434.99 466.13 435.99 464.18 436.99 466.13"/>
    <path class="cls-14" d="M434.99,208.47c-.69-10.43.64-13.12,10.88-14.1,8.89-.85,37.55-1.1,45.26.99,5.94,1.61,5.84,7.83,5.82,13.11h-61.96Z"/>
    <path class="cls-3" d="M512.94,392.23c.77.7,1.57-.26,2.05,2.89,3.56,23.08-2.76,54.93-.06,79-.7.63-1.38,1.29-2,2-4.65.12-9.34,0-13.99,0h-7.99c-.12-.18-3.43.84-4.03-1.34-.79-2.89.38-7.31.03-10.65h16s-.05-70.76-.05-70.76l10.03-1.15Z"/>
    <path class="cls-12" d="M462.97,224.45l-2-3.99,2,3.99Z"/>
    <path class="cls-10" d="M756.76,436.17c3.56,3.86,13.98,10.07,11.09,15.92-8.5,5.95-26.22,34.21-36.12,33.97-22.13-7.37,15.54-25.89,11.03-29.9-11.99-3.29-46.59,5.55-54.78-.17-7-4.88-1.14-13.82,3.83-13.82h48.97c-3.71-7.96-19.74-14.14-15.02-23.95,5.98-12.44,26.04,12.56,31.01,17.95Z"/>
    <path class="cls-14" d="M572.89,274.38v19.98s14.84.02,14.84.02l1.15-20.01h31.98c3.43,9.44,3.11,44.61,2,55.93-1.27.38-2.93,1.89-4,2-11.58,1.14-62.55,3.42-71.95,2-.89-.13-3.57-3-6-2,0-1.03-1.97-3.02-2-3.99-.05-1.33.03-2.66,0-3.99-.08-3.32.04-6.66,0-9.99-.02-1.33.02-2.66,0-3.99-.05-3.99,0-7.99,0-11.98v-21.97c.67-.01,1.34.03,2,0,.53-.03,1.55-1.99,2-2,.67-.02,1.33.01,2,0,9.3-.19,18.68.09,27.98,0Z"/>
    <path class="cls-9" d="M540.92,276.38l2-2c-.45.01-1.47,1.97-2,2Z"/>
    <path class="cls-17" d="M514.94,476.12c-.66.04-1.33-.02-2,0,.62-.71,1.3-1.37,2-2v2Z"/>
    <path class="cls-10" d="M1112.51,432.18c.67.65,1.36,1.32,2,2,2.39,2.53,14.18,14.78,13.85,16.7l-19.84,21.25v2c-4.41,3.71-9.49,9.42-13.99,11.98h-6c-.69-.43-1.24-1.49-2-2,0-.47-1.8-3.9-2-3.99-.04-10.2,11.96-13.93,15.99-21.95-5.98-.1-12.01.06-17.99-.02-2-.03-4,.01-6,0-2.66-.02-5.34.08-7.99,0-5.97-.17-14.79,1-19.99,0l-2-2c-.56-.31-1.48-1.38-2-2v-7.99c1.18-.58,1.35-1.16,2-2h53.95c-4.23-12.43-14.98-11.14-15.98-25.97-.04-.62-.09-1.39,0-2,11.66-2.57,20.07,8.29,27.98,15.98Z"/>
    <path class="cls-5" d="M1048.56,458.15c-.84-.16-1.44-1.7-2-2l2,2Z"/>
    <path class="cls-7" d="M1182.98,462.66c5.07-5.19,11.56-.57,11.66,6.47.21,14.87-21.62,3.74-11.66-6.47Z"/>
    <path class="cls-12" d="M1168.47,516.07l-2-2,2,2Z"/>
    <path class="cls-2" d="M1181.79,340.63c14.92-5.12,24.95,12.03,13.46,19.42-16.87,10.85-25.09-15.43-13.46-19.42Z"/>
    <path class="cls-14" d="M806.11,344.69c22.98-7.05,25.16,27.43,1.71,23.6-11.06-1.8-11.64-20.56-1.71-23.6Z"/>
    <path class="cls-4" d="M902.08,308.77c24.34-7.17,24.36,30.27,0,23.11-10.08-2.96-10.14-20.12,0-23.11Z"/>
    <path class="cls-9" d="M1292.38,412.2c3.6-7.98,8.17-16.2,16.78-19.89l25.17,30.91c2.17,5.54-13.22,2.06-15.97,2.96v39.95h-21.98v-36.95l-3.31-2.68-12.67-.32c1.33-7.85,5.83-10.87,11.98-13.97-.86,1.91-4.72,9.36-3.99,9.98l11.98,3.01v29.96c0,.37,2.06,4.77,3.3,5.14,17.4,3.72,7.79-30.68,12.32-40.68-4.92-12.24-12.95-12.79-23.61-7.41Z"/>
    <path class="cls-2" d="M1368.33,514.07l-.87-12.12-45.82-1.59c-4.99,1.64-3.06,9.4-3.28,13.7l-20.13-.86-2.75-11.24-45.8-1.61c-4.98,1.64-3.06,9.4-3.28,13.7l-19.99,2c-.06-.13-1.87-1.93-2-2l1.87-23.1,160.73-.59,3.01,2.99.51,19.8c-5.26,6.28-14.97-.91-22.22.9Z"/>
    <path class="cls-14" d="M810.01,428.46l191.53-.22c2.05.27,3.95,1.1,5.25,2.75,3.16,4.01,3.24,37.99-1,41.33l-190,1.75c-6.71-1.25-10.16-9.11-10.88-15.13-.63-5.2,1.26-29.22,5.11-30.48ZM826.12,440.5c-11.86,3.6-7.42,23.58,7.15,19.29,12.97-3.82,6.1-23.31-7.15-19.29ZM853.19,457.66c6.2,6.14,18.34,2.79,17.69-8.5-1.12-19.47-30.75-4.44-17.69,8.5ZM900.17,442.65c-9.91-9.84-27.1,6.72-14.64,15.64,12.46,8.92,22.41-7.94,14.64-15.64ZM992.11,442.66c-12.91-12.96-28,18.5-6.46,17.6,8.95-.37,12.48-11.57,6.46-17.6Z"/>
    <path class="cls-14" d="M997.98,344.69c19.86-6.09,24.31,18.82,9.17,23.24-16.91,4.93-21.78-19.37-9.17-23.24Z"/>
    <path class="cls-14" d="M1000.08,532.36c17.24-3.28,20.31,23.09,5.09,25.29-17.1,2.47-19.64-22.52-5.09-25.29Z"/>
    <path class="cls-4" d="M912.65,568c9.47,2.02,11.28,25.92-4.94,26.12-17.2.22-14.4-23.43-7.05-26.12,1.01-.37,10.44-.33,11.99,0Z"/>
    <path class="cls-14" d="M806.11,534.44c25.99-8,18.95,32.52-.12,21.35-8.76-5.13-9.2-18.48.12-21.35Z"/>
    <path class="cls-10" d="M498.95,476.12v39.95c-.33,3.86,0,8.06,0,11.98-3.07-.85-7.63,2.76-8.01-2.93-.51-7.49,1.36-46.95.02-49h7.99Z"/>
    <path class="cls-8" d="M616.86,544.03c.76.65,4.62-.19,5.72,3.21,1.1,3.4.14,8.87.27,12.77.41,12.43-.92,25.74,0,37.95.1,1.31-.22,2.81,0,3.99l-78.95,2c-7.51-.86-4.36-8.83-4.99-13.99-.24-1.91.08-4.03,0-5.99v-7.99c0-2.66-.06-5.33,0-7.99.14-5.97,0-12,0-17.98v-3.99c1.23.02,5.17-2.11,8.85-2.08,23.03.15,46.09.06,69.09.08ZM588.89,546.02l-13.72.29-2.29,17.71h16.01s0-18,0-18Z"/>
    <path class="cls-5" d="M538.92,583.98c-.16-3.66,0-5.14,0-7.99v7.99Z"/>
    <path class="cls-16" d="M335.06,274.38c5.6.04,27.98-2.78,27.98,3v54.93h-71.95c3.46-8.54,1.91-18.68,2-27.96.06-5.97-.22-12.02,0-17.98.15-3.98-.12-8.02-.01-12,9.3-.05,18.69.11,27.99.01.16,3.34-1.06,17.69,1.15,18.01l10.85-.02c-.46-6.75-.37-11.54,1.99-17.99Z"/>
    <path class="cls-1" d="M588.88,274.38l-1.15,20.01-14.85-.02v-19.98c5.33-.05,10.68,0,16,0Z"/>
    <path class="cls-8" d="M572.89,408.21v19.98s14.84.02,14.84.02l1.15-20.01c6.63.1,30.14-1.58,33.11,1.94.88,1.23.66,2.68.87,4.06,1.54,10.1-.37,24.97,0,35.95.07,1.99-.11,4,0,5.99.07,1.32-.11,2.68,0,3.99.17,1.94-.33,4.24,0,5.99l-81.94,2v-59.92c10.63-.06,21.35.09,31.98,0Z"/>
    <path class="cls-19" d="M1108.51,474.12v-2l1.96,1.01c-.34,1.22-1.66.74-1.96.99Z"/>
    <path class="cls-15" d="M1292.38,412.2c10.66-5.38,18.69-4.83,23.61,7.41-4.52,9.99,5.08,44.39-12.32,40.68-1.24-.38-3.3-4.77-3.3-5.14v-29.96l-11.98-3.01c-.73-.61,3.13-8.07,3.99-9.98Z"/>
    <path class="cls-4" d="M900.17,442.65c7.76,7.71-2.18,24.56-14.64,15.64-12.46-8.92,4.73-25.48,14.64-15.64Z"/>
    <path class="cls-4" d="M826.12,440.5c13.25-4.02,20.12,15.47,7.15,19.29-14.57,4.29-19.01-15.7-7.15-19.29Z"/>
    <path class="cls-4" d="M853.19,457.66c-13.06-12.94,16.57-27.96,17.69-8.5.65,11.29-11.49,14.64-17.69,8.5Z"/>
    <path class="cls-15" d="M992.11,442.66c6.02,6.04,2.49,17.23-6.46,17.6-21.54.89-6.45-30.56,6.46-17.6Z"/>
    <path class="cls-11" d="M281.1,542.04c.55.73,1.94,1.73,2,2,.63,3.09.56,20.15-.28,22.69l-1.59,2.4-66.8.59c-6.19-2.02-2.21-20-3.28-25.69l2-2h67.95Z"/>
    <path class="cls-1" d="M363.04,570h-69.95v-27.96h66.95c6.04,6.93,1.88,19.03,3,27.96Z"/>
    <path class="cls-1" d="M321.07,577.99v12s10.84.02,10.84.02l1.15-12.02c9.31.12,18.88-.86,28.11.87,4.14,2.89,1.52,20.12-.13,25.09h-67.95v-25.98c9.29-.06,18.68.11,27.98.01Z"/>
    <path class="cls-3" d="M241.13,577.99v12s10.86.06,10.86.06l3.13-12.06c8.64.1,17.35-.07,25.99-.01-2.02,4.61,4.94,25.98-1.01,25.98h-66.95l-1.16-24.06c2.53-3.41,23.29-1.78,29.14-1.9Z"/>
  </g>
</svg>