<?xml version="1.0" encoding="UTF-8"?>
<svg id="_レイヤー_1" data-name="レイヤー 1" xmlns="http://www.w3.org/2000/svg" viewBox="0 0 1812.75 904.7">
  <defs>
    <style>
      .cls-1 {
        fill: #69b2d6;
      }

      .cls-2 {
        fill: #a1d8ee;
      }

      .cls-3 {
        fill: #b3dff1;
      }

      .cls-4 {
        fill: #5baedb;
      }

      .cls-5 {
        fill: #64b0d5;
      }

      .cls-6 {
        fill: #f7fbfb;
      }

      .cls-7 {
        fill: #c5e4ef;
      }

      .cls-8 {
        fill: #c1e4f0;
      }

      .cls-9 {
        fill: #7cc1e0;
      }

      .cls-10 {
        fill: #bbe2f1;
      }

      .cls-11 {
        fill: #bee3f2;
      }

      .cls-12 {
        fill: #6ba9ca;
      }

      .cls-13 {
        fill: #62b2db;
      }

      .cls-14 {
        fill: #edf8f9;
      }

      .cls-15 {
        fill: #68b4da;
      }

      .cls-16 {
        fill: #bae1f2;
      }

      .cls-17 {
        fill: #b9e3f4;
      }

      .cls-18 {
        fill: #f0f9f9;
      }

      .cls-19 {
        fill: #f3fafa;
      }

      .cls-20 {
        fill: #64b1da;
      }

      .cls-21 {
        fill: #80bad6;
      }

      .cls-22 {
        fill: #bce4f3;
      }

      .cls-23 {
        fill: #6fb6d9;
      }

      .cls-24 {
        fill: #eaba8b;
      }

      .cls-25 {
        fill: #b1e0f4;
      }

      .cls-26 {
        fill: #00b3ec;
      }

      .cls-27 {
        fill: #7db5d1;
      }

      .cls-28 {
        fill: #c0e4f3;
      }

      .cls-29 {
        fill: #75b4d0;
      }
    </style>
  </defs>
  <rect class="cls-26" width="1812.75" height="904.7"/>
  <g id="_5MQrw0.tif" data-name="5MQrw0.tif">
    <g>
      <path class="cls-6" d="M962.15,260.8c7.95,11.26,2.53,33.02,12.57,39.97,1.65,1.14,26.9,10.43,28.41,10.44,12.24.06,21.82-22.2,38.38-17.3,2.26.67,32.72,30.26,33.8,32.62,6.03,13.22-19.94,29.04-18.17,39.12l13.46,31.43,37.71,10.35c2.32,3.87,2.53,40.48,1.38,46.52-3.57,18.63-32.39,7.93-41.63,21.44-3.06,4.47-10.24,24.17-9.47,29.5,1.27,8.79,20.52,21.84,17.73,32.57-.85,3.27-32.24,35.15-35.76,36.75-13.91,6.32-24.39-19.61-42.7-16.02-2.68.52-25.76,9.14-26.58,10.31-5.23,7.43-1.21,33.45-11.68,38.68-4.73,2.36-40.16,2.63-46.61,1.46-16.03-2.91-8.78-34.74-18.27-41.79-4.06-3.02-27.46-10.07-32.64-9.33-8.78,1.25-21.88,20.53-32.55,17.68-7.41-1.98-39.38-35.84-37.77-42.38,6.31-12.28,19.87-21.08,17.02-35.98-6.52-34.06-19.11-23.59-40.2-32.07-14.73-5.92-12-35.25-10.01-49.59,2.59-18.61,22.09-12.79,36.63-17.32l16.55-33.36-19.81-33.07c.45-4.96,27.92-34.34,32.49-36.47,17.28-8.05,30.2,17.78,42.75,16.04l31.86-12,6.84-38.2,56.25.03ZM913.73,339.16c-115.23,17.93-96.32,210.27,37.54,190.63,120.42-17.67,101.98-212.35-37.54-190.63Z"/>
      <path class="cls-19" d="M1299.01,287.4c12.13-25.36,32.41-31.84,60.09-30.04.32,6.96-.44,14.08-.01,21.03-9.76-5.29-42.05,7.32-42.05,16.51v43.53h324.42c3.72-34.57-3.51-65.69-45.06-60.04.44-5.94-.3-12.06,0-18.01h27.03c23.54,5.82,36.07,14.82,39.05,40.52,10.64,91.74-7.96,203.35,0,297.22-1.44,12.45-12.32,35.67-24.04,40.52-.81.33-2.04-.29-3,0-5.13,1.55-13.88,2.74-19.4,3.13-78.77,5.52-194.24,4.41-273.61.02-7.49-.41-15.16-1.45-22.4-3.15-.99-.23-2.14.28-3,0-13.66-8.59-22.22-27.62-24.04-43.52-10.19-89.29,7.76-197.08-.15-288.35-.79-7.75,3.14-13.04,6.17-19.37ZM1314.03,398.48c-.2,15.97.05,32.06,0,48.03-.03,10.98-.03,22.04,0,33.02.04,13.97-.24,28.07,0,42.03.12,6.99-.2,14.03,0,21.01.5,17.99-1.1,36.3,3,54.04,3.01,12.98,4.77,15.96,18.02,21.01,7.35,2.8,7.29,2.48,15.02,3,21.17,1.44,44.55-.23,66.09,0,41.96.45,84.2.36,126.16,0,17.84-.15,68.28,3.28,81.03-1.56,1.86-.71,2.4-4.05,3.08-4.45,2.37-1.38,5.84-.45,9.13-4.26,8.83-10.23,5.52-36.22,5.89-49.77s-.15-26.06,0-39.03c.3-24.95.15-50.1,0-75.05-.05-7.99.04-16.03,0-24.02-.08-16.54,1.98-38.5,0-54.04-.28-2.18,1.48-6.4-1.79-6.06l-325.64.04c-.09,11.97.16,24.07.02,36.04Z"/>
      <path class="cls-18" d="M265.67,203.34l201.26,3c3.98,1.42,5.23,1.4,9.09,4.29,32.45,24.26,63.22,70.16,96.21,96.12l2.77,6.23-.13,302.95c-.49,13.46-22.61,31.72-34.35,31.72h-64.58l12.02-21.01c13.68.12,66.09,4.43,66.09-16.51v-283.7h-70.59c-10.33,0-24.14-13.82-27.14-23.91-.75-2.51-4.4-21.32-4.4-22.62v-52.54h-208.77c-1.23,0-16.1,14.54-13.67,19.36l.24,363.33c4.38,23.55,48.57,14.74,65.54,17.07l12.48,20.51c-22.6-1.13-46.7,1.65-69.09.03-.99-.07-2.02.12-3,0-2.16-7.69-15.13-9.38-18.02-12.01-6.21-5.65-11.35-28.52-12.12-37.42,10.59-114.44-15.1-256.93,3.11-367.86.17-1.04,3.22-3.71,3-6,1.04-.98,1.98-2.03,3-3,2.58-2.47,13.52-6.44,17.09-14.44,11.39-1.71,22.46-2.96,33.97-3.57ZM533.02,302.41c-14.62-19.75-31.13-38.39-52.54-51.07-5.28-.15-8.87,45.56,2.97,51.07h49.56Z"/>
      <path class="cls-17" d="M514.99,380.47c-5.29-.5-11.34,5.51-15.02,6-15.23,2.04-149.16-5.7-150.25,1.73l.04,16.3,150.23-.02c.15-1.98-.13-4.01-.02-6l8.74.38.6,8.19,5.68.44c.29,14.03-2.92,27.47-3,39.03-2.88.65-10.66-.92-12.02,0l.02-27.03h-66.12c1.68,8.79-2.3,25.81.02,33.04.98,3.05,12.33,6.59,9.01,15.01-2.63.18-6.17-1.2-8.29.77-1.21,1.6-.51,3.5-.72,5.23h-15.02c-.21-1.64.61-3.6-.59-5.24l-68.52-.78c-.34,13.63-1.02,23.28,3.02,36.04.86,2.72,4.36,4.57,3.01,8.98-20.57,4.36-42.07,3.4-63.08,3.03-10.65-.19-21.44,6.48-23.95-7.6-3.52-19.73-3.07-117.05-.23-138.15,3.14-23.34,23.47-13.45,37.58-13.23,52.99.84,106.47.63,159.47,0,15.29-.18,29.88-7.42,45.01,2.75,1.01,6.81,3.7,14.55,4.41,21.13ZM334.76,368.46h-46.56c-8.81,8.72-2.95,24.44-4.51,36.03h51.07v-36.03ZM334.76,419.5h-51.07l-.02,33.04,46.16,2.56,4.5-4.49.42-31.1ZM418.87,419.5h-69.09v33.02h69.09v-33.02ZM334.76,467.53h-51.07c1.56,11.58-4.3,27.31,4.51,36.03h46.56v-36.03Z"/>
      <path class="cls-7" d="M1359.08,278.4c1.12,18.02-1.31,34.82,20.93,40.6,32.24,8.38,40.1-14.51,42.15-40.6l111.14,3c.51,6.79-.91,13.62,2.01,20.43,2.08,4.86,6.74,3.27,7,3.59.95,1.16.7,5.64,4.29,9.09,7.4,7.11,22.02,7.85,31.16,3.89,4.96-2.15,3.26-6.71,3.59-6.98,1.03-.84,4.31-.84,6.01-3,11.31-14.42,7.75-12.92,9.01-30.02,41.55-5.64,48.78,25.47,45.06,60.04h-324.42v-43.53c0-9.19,32.3-21.8,42.05-16.51Z"/>
      <path class="cls-8" d="M421.87,539.58v81.06c7.17,1.34,44.77-4.76,42.04,7.46l-70.99,82.38c-4.04.68-17.22-14.07-20.65-17.75-6.47-6.93-50.62-58.35-51.93-62.19-1.09-3.2-.64-6.62-.61-9.89h39.06v-76.57l4.51-4.5h58.58Z"/>
      <path class="cls-10" d="M1220.91,446.51h-76.6c-2.2,0-9.25-9.52-7.66-13.35-.19-3.13,6.16-10.67,7.66-10.67h79.6l-26.7-29.12c9.98-37.45,56.82,26.02,68.86,39.63,0,3.86-49.12,53.89-53.3,55.08-8.46,2.42-16.06-4.05-15.25-12.6.93-9.79,19.31-19.96,23.38-28.97Z"/>
      <path class="cls-22" d="M686.21,422.5c-3.42-8.73-21.19-18.49-23.48-26.14-3.19-10.63.52-17.84,12.29-15.39,6.12,1.27,45.94,39.25,50.41,45.9,2.04,3.03,3.61,4.37,2.51,8.54-.98,3.72-51.34,53.21-55.24,53.23-7.38.04-12.05-9.01-10.09-15.95,1.56-5.55,28.31-24.97,23.59-29.15-15.34-5.02-78.05,12.08-83.66-5.01-2.08-4.07.14-16.02,4.07-16.02h79.6Z"/>
      <path class="cls-25" d="M511.99,446.51c0,.4,3.15,3.48,3.11,7.28-.13,14.01,4.71,60.36-8.22,64.17l-214.17-2.4c21.01.37,42.52,1.33,63.08-3.03,1.36-4.41-2.15-6.26-3.01-8.98l66.1.02c-.87-9.6,1.18-20.73-.02-30.04h15.02c-1.1,9.42.79,20.36,0,30.02h63.08l3.02-36.04c-18.87.95-38.26-1.26-57.09.01,3.32-8.42-8.04-11.96-9.01-15.01,10.21-1.73,61.58,2.67,65.5-.76,1.36-1.19.29-5.04.59-5.24,1.36-.92,9.14.65,12.02,0Z"/>
      <path class="cls-29" d="M214.61,221.36c1.57-10.99,18.53-19.91,28.46-21.09l230.76.69,102.61,101.59,4.78,16.23c-8.85,89.55,11.46,201.17-.4,288.08-2.73,20.02-25.95,46.79-46.3,46.79h-58.58c-7.37-17.65,2.53-19.17,12.02-27.02.35-.29-1.42-5.2,1.97-6.08,15.65-4.07,53.63,9.98,58.03-13.51l.26-272.87c-29.41-12.41-58.44,5.98-84.45-15.16-27.71-22.53-7.6-58.54-17.86-88.65h-196.75c-7.94,0-15.8,18.07-16.02,25.43-.14,4.96,2.71,11.3,2.66,17.96-.78,111.09.18,222.2-.08,333.29,4.54,24.21,42.28,7.82,57.08,15.06l20.98,24.02c.16,6.42-51.7,4.67-58.65,4.59-5.08-.06-13.36,1.92-16.48-3.05,22.39,1.62,46.49-1.16,69.09-.03l-12.48-20.51c-16.97-2.33-61.16,6.48-65.54-17.07l-.24-363.33c-2.43-4.82,12.44-19.36,13.67-19.36h208.77v52.54c0,1.3,3.65,20.11,4.4,22.62,3,10.09,16.81,23.91,27.14,23.91h70.59v283.7c0,20.94-52.4,16.64-66.09,16.51l-12.02,21.01h64.58c11.74,0,33.86-18.26,34.35-31.72l.13-302.95-2.77-6.23c-32.98-25.96-63.76-71.86-96.21-96.12-3.86-2.89-5.12-2.87-9.09-4.29-3.74-1.34-4.11-2.66-10.16-3.22-52.18-4.78-137.64-2.63-191.09.22-11.51.61-22.58,1.86-33.97,3.57-3.57,8-14.52,11.97-17.09,14.44Z"/>
      <path class="cls-21" d="M1380.11,302.41c-1.84-1.61-7.49,1.22-9.07-7.41-2.32-12.64-2.52-66.57,7.88-73.32,15.68-10.18,19.53,3.74,31.22,8.68v66.05c7.04.4,5.31,1.02,6.01-4.45,1.68-13.07-2.56-27.46,3-40.58h115.65c10.71,9.97-.64,44.74,7.51,54.04.72.82,17.59,8.7,19.78,8.99,6.72.89,13-1.24,19.27-2.98-.34.27,1.37,4.84-3.59,6.98-9.15,3.96-23.76,3.22-31.16-3.89-3.59-3.45-3.34-7.93-4.29-9.09-.26-.32-4.92,1.27-7-3.59-2.92-6.81-1.5-13.64-2.01-20.43-.52-6.92.37-14.08,0-21.01-3.12-4.97-11.4-3-16.48-3.05-26.01-.27-52.18-.32-78.19,0-5.08.06-13.36-1.92-16.48,3.05-.32,5.94.47,12.09,0,18.01-2.05,26.09-9.91,48.98-42.15,40.6-22.24-5.78-19.81-22.59-20.93-40.6-.43-6.95.33-14.07.01-21.03-27.68-1.8-47.96,4.68-60.09,30.04h-6.01c12.65-31.18,40.25-40.69,72.09-33.02v43.53c0,6.33,24.49,26.9,24.02,10.53-10.51,2.85-8.48-5.57-9-6.02,5.94,5.11,24.03,2.03,24.03-7.51v-63.04c-6.56-8.23-22.74-11.74-26.43.61-2.24,7.51-1.64,66.47,2.39,69.94Z"/>
      <path class="cls-14" d="M1565.39,222.14c22.02-.56,17.75,47.7,16.17,63.95-2.4,24.71-27.84,24.71-32.59,8.19-2.21-7.68-1.64-41-.77-50.54,1.04-11.39,3.51-21.25,17.2-21.6Z"/>
      <path class="cls-27" d="M1638.44,638.65c11.71-4.85,22.6-28.07,24.04-40.52-7.96-93.87,10.64-205.47,0-297.22-2.98-25.71-15.52-34.71-39.05-40.52-8.35-2.06-15.4-5.34-25.36-2.73l-1.67,2.73c-.3,5.96.44,12.07,0,18.01-1.26,17.1,2.3,15.6-9.01,30.02l3.42-52.12c3.13-9.56,31.34-3.51,39.27-1.06,17.95,5.56,35.56,23.96,38.14,42.94-6.46,95.01,9.57,203.5.23,296.91-1.92,19.18-11.1,36.35-30,43.56Z"/>
      <path class="cls-27" d="M1299.01,287.4c-3.03,6.33-6.95,11.62-6.17,19.37,7.91,91.28-10.04,199.07.15,288.35,1.81,15.9,10.38,34.94,24.04,43.52-16.4-5.27-28.07-26.71-30.12-43.45-10.79-88.18,8.33-197.89-.03-288.38-1.55-8.36,3.67-13.38,6.12-19.41h6.01Z"/>
      <path class="cls-27" d="M1635.44,638.65c-3.99,8.02-14.69,8.45-22.41,9.12-70.54,6.14-196.35,5.18-267.59.01-8.67-.63-20.6-.12-25.4-9.13,7.24,1.7,14.91,2.73,22.4,3.15,79.37,4.39,194.84,5.5,273.61-.02,5.52-.39,14.27-1.58,19.4-3.13Z"/>
      <path class="cls-12" d="M217.61,635.65c-10.75-11.48-13.78-9.95-15.13-28.42-8.66-118.41,6.83-247.06-.05-366.57-1.82-6.68,5.23-8.7,6.17-10.29-18.21,110.93,7.48,253.42-3.11,367.86.77,8.9,5.91,31.77,12.12,37.42Z"/>
      <path class="cls-25" d="M514.99,380.47c.9,8.35-.18,18.3,0,27.02l-5.68-.44-.6-8.19-8.74-.38c.22-3.98-.15-8.02,0-12.01,3.68-.49,9.73-6.5,15.02-6Z"/>
      <path class="cls-29" d="M235.63,647.66c-18.07-2.12-11.43-4.98-18.02-12.01,2.89,2.63,15.86,4.31,18.02,12.01Z"/>
      <path class="cls-29" d="M208.6,230.36c1-1.69.86-3.99,3-6,.22,2.29-2.83,4.96-3,6Z"/>
      <path class="cls-1" d="M913.73,339.16c139.53-21.72,157.97,172.96,37.54,190.63-133.86,19.64-152.78-172.7-37.54-190.63ZM928.9,366.28c-107.12,10.23-62.83,175.54,35.71,128.8,67.03-31.79,37.31-135.78-35.71-128.8Z"/>
      <path class="cls-13" d="M1641.45,368.46c1.98,15.54-.08,37.5,0,54.04l-6-.02-.07,22.15,6.07,1.89c.15,24.95.3,50.1,0,75.05-9.1-1.67-5.78,4.59-6.01,10.37-.24,6.02-.21,12.27,0,18.29.2,5.78-3.07,12.04,6.01,10.37-.37,13.55,2.94,39.55-5.89,49.77-3.29,3.81-6.77,2.88-9.13,4.26-24.5.6-49.21-.82-73.73,0-5.79.19-12.05-3.06-10.38,6-41.96.36-84.2.45-126.16,0,1.67-9.09-4.59-5.78-10.38-6-14.66-.58-30.65-.49-45.33,0-5.78.19-12.05-3.06-10.38,6-7.73-.53-7.67-.2-15.02-3-8.36-6-13.44-11.77-18.02-21.01-4.11-17.74-2.5-36.04-3-54.04l6,.02.06-19.15-6.07-1.88c-.24-13.96.04-28.06,0-42.03l6,.02.07-31.15-6.07-1.89c.05-15.97-.2-32.07,0-48.03,9.08,1.67,5.8-4.57,6.01-10.36.28-7.55-.21-15.17-.02-22.68l321.43,3.02ZM1413.15,488.54c10.29-11.19,20.53-22.77,34.45-29.97,15.17,1.65,49.39,34.09,61.56,28.58,12.72-5.76,51.76-63.09,61.29-61.45,6.82,4.64,10.08,13.77,19.9,11.81l6.05-54.05c-2.46-2.47-52.47,4.39-55.75,8.85-9.02,12.29,16.39,12.79,13.66,19.64-14.02,7.81-37.45,46.18-48.12,51.11-13.61,6.29-46.15-24.15-61.48-27.5-21.16,17.68-44.08,34.68-64.6,52.98-18.11-2.29-40.04,32.41-16.16,35.12,27.26,3.09,34.51-19.16,49.2-35.12ZM1551.33,476.54c-8.92,25.98-5.63,27.39-3,51.04-7.59,0-13.94-3.96-21.03-6-13.42-3.88-24.77-8.31-38.71-2.67-.95,7.83-.19,15.82-.35,23.68-3.67,13.54-17.34,13.58-21.03,0-.76-14.81-5.15-29.58-2.99-45.05h-36.08c-.13,8.98.21,18.06.02,27.03l-6.03,1.52.03,7.48h6c-.18,14.98,0,30.07,0,45.04l-6.07,1.89.06,16.14c1.98.16,4.02-.15,6-.02.99.07,2.01-.02,3,0,8.97,6.06,23.19,3.87,33.04,0,1.07-.42,2.03-2.59,3-3,9.54-3.99,11.47-4,21.03,0,1.1.46,2.06,2.63,3,3,9.86,3.85,24.07,6.06,33.04,0,1,.04,2.01-.05,3,0,12.94.64,52.46,7.61,60.08,0,7.71-7.7.71-109.12,2.58-127.17-2.84-8.68-25.93-4.22-33.73-4.52l-3.56,2.56c-2.07,2.68-.62,6.93-1.35,9.05ZM1368.1,596.62l4.37,3c8.84-.95,22.03,3.18,28.67-3,.76-.71,2.39-4.5,3-6,4.59-11.34.05-8.77,0-12.01-.11-7.71,2.12-31.29-2.81-34.72h-33.42c-4.65,3.24-4.42,47.49.19,52.73Z"/>
      <path class="cls-23" d="M1314.03,398.48c.15-11.98-.11-24.07-.02-36.04l325.64-.04c3.27-.34,1.52,3.88,1.79,6.06l-321.43-3.02c-.19,7.51.29,15.13.02,22.68-.21,5.79,3.07,12.03-6.01,10.36Z"/>
      <path class="cls-23" d="M1626.43,614.63c-.68.4-1.22,3.74-3.08,4.45-12.74,4.84-63.19,1.41-81.03,1.56-1.68-9.06,4.59-5.81,10.38-6,24.52-.82,49.23.6,73.73,0Z"/>
      <path class="cls-23" d="M1350.07,620.64c-1.68-9.06,4.59-5.81,10.38-6,14.68-.49,30.67-.58,45.33,0,5.78.23,12.05-3.09,10.38,6-21.53-.23-44.92,1.44-66.09,0Z"/>
      <path class="cls-23" d="M1641.45,521.57c-.15,12.96.35,26.07,0,39.03-9.08,1.67-5.8-4.59-6.01-10.37-.21-6.02-.24-12.28,0-18.29.23-5.77-3.09-12.04,6.01-10.37Z"/>
      <path class="cls-23" d="M1314.03,446.51l6.07,1.89-.07,31.15-6-.02c-.03-10.98-.03-22.04,0-33.02Z"/>
      <path class="cls-23" d="M1641.45,422.5c.04,7.99-.05,16.03,0,24.02l-6.07-1.89.07-22.15,6,.02Z"/>
      <path class="cls-23" d="M1314.03,521.57l6.07,1.88-.06,19.15-6-.02c-.2-6.99.12-14.02,0-21.01Z"/>
      <path class="cls-7" d="M1623.42,260.38h-27.03l1.67-2.73c9.96-2.61,17.02.67,25.36,2.73Z"/>
      <path class="cls-23" d="M1335.05,617.63c-13.25-5.06-15.02-8.03-18.02-21.01,4.59,9.24,9.66,15.01,18.02,21.01Z"/>
      <path class="cls-8" d="M533.02,302.41h-49.56c-11.85-5.5-8.26-51.22-2.97-51.07,21.4,12.68,37.92,31.32,52.54,51.07Z"/>
      <path class="cls-2" d="M466.93,206.35l-201.26-3c53.45-2.84,138.91-4.99,191.09-.22,6.05.55,6.42,1.88,10.16,3.22Z"/>
      <path class="cls-9" d="M499.97,386.47c-.15,3.99.22,8.03,0,12.01-.11,1.99.17,4.01.02,6l-150.23.02-.04-16.3c1.09-7.43,135.01.32,150.25-1.73Z"/>
      <path class="cls-13" d="M352.78,503.55c-4.04-12.76-3.36-22.41-3.02-36.04l68.52.78c1.2,1.64.38,3.6.59,5.24,1.19,9.3-.85,20.43.02,30.04l-66.1-.02Z"/>
      <path class="cls-20" d="M442.9,467.53c18.82-1.28,38.21.94,57.09-.01l-3.02,36.04h-63.08c.79-9.67-1.1-20.6,0-30.02.2-1.74-.49-3.63.72-5.23,2.13-1.97,5.67-.59,8.29-.77Z"/>
      <rect class="cls-20" x="349.78" y="419.5" width="69.09" height="33.02"/>
      <path class="cls-15" d="M433.89,452.52c-2.31-7.23,1.67-24.25-.02-33.04h66.12s-.02,27.03-.02,27.03c-.3.2.77,4.05-.59,5.24-3.92,3.44-55.29-.97-65.5.76Z"/>
      <path class="cls-20" d="M334.76,368.46v36.03h-51.07c1.56-11.58-4.3-27.31,4.51-36.03h46.56Z"/>
      <path class="cls-15" d="M334.76,467.53v36.03h-46.56c-8.81-8.72-2.95-24.44-4.51-36.03h51.07Z"/>
      <polygon class="cls-20" points="334.76 419.5 334.34 450.6 329.84 455.09 283.68 452.53 283.69 419.5 334.76 419.5"/>
      <path class="cls-6" d="M1533.31,260.38c.37,6.94-.52,14.1,0,21.01l-111.14-3c.47-5.93-.32-12.07,0-18.01h111.14Z"/>
      <path class="cls-18" d="M1380.11,302.41c-4.03-3.47-4.63-62.42-2.39-69.94,3.68-12.35,19.86-8.84,26.43-.61v63.04c0,9.54-18.09,12.61-24.03,7.51Z"/>
      <path class="cls-7" d="M1533.31,260.38h-111.14c3.12-4.98,11.4-2.99,16.48-3.05,26.01-.32,52.17-.27,78.19,0,5.08.05,13.36-1.92,16.48,3.05Z"/>
      <path class="cls-24" d="M928.9,366.28c73.02-6.97,102.74,97.01,35.71,128.8-98.55,46.74-142.83-118.57-35.71-128.8ZM925.72,390.14c-64.64,13.26-32.66,114.59,29.48,83.53,43.83-21.91,20.44-93.77-29.48-83.53Z"/>
      <path class="cls-14" d="M1380.11,488.54c20.53-18.3,43.44-35.3,64.6-52.98,15.32,3.35,47.86,33.78,61.48,27.5,10.67-4.93,34.1-43.3,48.12-51.11,2.73-6.85-22.67-7.35-13.66-19.64,3.27-4.46,53.28-11.32,55.75-8.85l-6.05,54.05c-9.82,1.96-13.08-7.16-19.9-11.81-9.52-1.65-48.57,55.68-61.29,61.45-12.17,5.51-46.39-26.93-61.56-28.58-13.92,7.2-24.16,18.78-34.45,29.97-10.06.78-44.05,45.95-50.81,25.19-2.68-8.21,10.94-19.1,17.77-25.19Z"/>
      <path class="cls-16" d="M1587.38,596.62l-33.23-1.3c-4.61-3.28-2.58-14.3-2.81-19.71-.55-12.9.04-26.1,0-39.03-.07-19.97.05-40.07,0-60.04.73-2.12-.72-6.37,1.35-9.05l3.56-2.56c7.8.3,30.89-4.16,33.73,4.52-1.88,18.05,5.13,119.47-2.58,127.17Z"/>
      <path class="cls-11" d="M1428.17,524.57c.19-8.98-.14-18.06-.02-27.03h36.08c-2.16,15.47,2.23,30.24,2.99,45.05.86,16.89-.62,34.12,0,51.04-.97.41-1.94,2.58-3,3-10.98-.19-22.06.26-33.04,0-1-.02-2.01.07-3,0v-18.01c0-14.97-.18-30.06,0-45.03.04-3-.06-6.01,0-9.01Z"/>
      <path class="cls-28" d="M1527.3,521.57v75.05c-1-.05-2,.04-3,0-10.96-.43-22.08.3-33.04,0-.94-.37-1.9-2.54-3-3,.23-16.97-.33-34.07,0-51.04.15-7.87-.6-15.85.35-23.68,13.94-5.64,25.28-1.21,38.71,2.67Z"/>
      <path class="cls-3" d="M1404.14,578.61v12.01c-.61,1.51-2.24,5.3-3,6h-33.04c-4.61-5.24-4.84-49.49-.19-52.73h33.42c4.93,3.43,2.7,27,2.81,34.72Z"/>
      <path class="cls-4" d="M1548.33,527.57c.35,3.18-1.09,7.63,3,9.01.04,12.93-.55,26.13,0,39.03l-4.82,6.2-19.21-9.2v-51.04c7.09,2.05,13.44,6.01,21.03,6Z"/>
      <path class="cls-23" d="M1467.22,542.58c3.69,13.58,17.36,13.54,21.03,0-.33,16.97.23,34.07,0,51.04-9.56-4-11.49-3.99-21.03,0-.62-16.92.86-34.14,0-51.04Z"/>
      <path class="cls-23" d="M1380.11,488.54c-6.83,6.09-20.45,16.97-17.77,25.19,6.76,20.76,40.75-24.41,50.81-25.19-14.69,15.97-21.95,38.22-49.2,35.12-23.88-2.71-1.95-37.41,16.16-35.12Z"/>
      <path class="cls-23" d="M1527.3,572.6l19.21,9.2,4.82-6.2c.23,5.41-1.8,16.43,2.81,19.71l33.23,1.3c-7.61,7.61-47.14.64-60.08,0v-24.02Z"/>
      <path class="cls-23" d="M1551.33,536.58c-4.09-1.38-2.65-5.82-3-9.01-2.63-23.64-5.92-25.05,3-51.04.05,19.97-.07,40.07,0,60.04Z"/>
      <path class="cls-23" d="M1428.17,578.61v18.01c-1.99-.13-4.02.18-6,.02l-.06-16.14,6.07-1.89Z"/>
      <path class="cls-23" d="M1401.14,596.62c-6.64,6.17-19.83,2.04-28.67,3l-4.37-3h33.04Z"/>
      <path class="cls-23" d="M1464.22,596.62c-9.85,3.87-24.07,6.06-33.04,0,10.98.26,22.06-.19,33.04,0Z"/>
      <path class="cls-23" d="M1524.3,596.62c-8.97,6.06-23.19,3.85-33.04,0,10.97.3,22.09-.43,33.04,0Z"/>
      <path class="cls-23" d="M1428.17,524.57c-.06,3,.04,6.01,0,9.01h-6s-.03-7.49-.03-7.49l6.03-1.52Z"/>
      <path class="cls-23" d="M1404.14,590.62v-12.01c.05,3.24,4.59.67,0,12.01Z"/>
      <path class="cls-5" d="M925.72,390.14c49.92-10.24,73.31,61.62,29.48,83.53-62.14,31.06-94.11-70.27-29.48-83.53Z"/>
    </g>
  </g>
</svg>