<?xml version="1.0" encoding="UTF-8"?>
<svg id="_レイヤー_1" data-name="レイヤー 1" xmlns="http://www.w3.org/2000/svg" viewBox="0 0 1812.75 904.7">
  <defs>
    <style>
      .cls-1 {
        fill: #efad74;
      }

      .cls-2 {
        fill: #b8e0ee;
      }

      .cls-3 {
        fill: #64b3d8;
      }

      .cls-4 {
        fill: #f9a865;
      }

      .cls-5 {
        fill: #cce5f1;
      }

      .cls-6 {
        fill: #79b0c9;
      }

      .cls-7 {
        fill: #7ab8cf;
      }

      .cls-8 {
        fill: #afe4f5;
      }

      .cls-9 {
        fill: #f0fafa;
      }

      .cls-10 {
        fill: #aee1f1;
      }

      .cls-11 {
        fill: #e9f6f8;
      }

      .cls-12 {
        fill: #eaf9fb;
      }

      .cls-13 {
        fill: #dff7fa;
      }

      .cls-14 {
        fill: #f9fcfb;
      }

      .cls-15 {
        fill: #96aaac;
      }

      .cls-16 {
        fill: #b3e0f0;
      }

      .cls-17 {
        fill: #8fb9c7;
      }

      .cls-18 {
        fill: #00b3ec;
      }

      .cls-19 {
        fill: #f3fbfa;
      }

      .cls-20 {
        fill: #b9deea;
      }

      .cls-21 {
        fill: #f5fcfa;
      }

      .cls-22 {
        fill: #6cabc4;
      }

      .cls-23 {
        fill: #70b1ce;
      }

      .cls-24 {
        fill: #b0e1f1;
      }

      .cls-25 {
        fill: #6db3d2;
      }

      .cls-26 {
        fill: #71b6d4;
      }

      .cls-27 {
        fill: #5fb3da;
      }

      .cls-28 {
        fill: #caaf92;
      }

      .cls-29 {
        fill: #f7fcfa;
      }
    </style>
  </defs>
  <rect class="cls-18" width="1812.75" height="904.7"/>
  <g id="qOdwDQ.tif">
    <g>
      <path class="cls-3" d="M381.56,387.48c1.11-12.26-28.95-19.57-35.97-17.98l15.99-49.93c5.33.66,4.73,7.36,11.99,2.98.55-.33,7.69-9.64,7.81-10.27,2.55-14.06-39.67-3.03-44.97-2.87-6.29.19-14-4.4-20.85-.87l-1.94,7.02,11.7.29c2.31,4.85,4.98,21.03,11.24,21.82,8.21,1.04,7-13.76,13.02-18.11l-13,35.94-11.18-35.74-11.81-.2c.4,2.41-.57,5.96,0,7.98-1.87-.22-7.42.79-7.99,2-18.03-32.86-65.48,7.83-19.99,21.97-3.38-.58-6.65-1.28-9.98-2v6s-10,.01-10,.01c2.43,28.11,54.66,24.77,39.97-8,6.46,1.22,8.34-4.05,11.99-7.99,3.39,10.88,9.78,23.16,13.99,33.96-8.02-1.11-5.97-11.22-10.97-9.98-1.58.39-4.54,7.09-6.88,9.12-7.99,6.91-36.71,7.72-44.03-.28-3.68-4.02-2.71-12.72-14.06-6.84,6.34-8.61,5.51-12.51-6-11.98.38-.55-.34-2.82,0-3.99l21.97,1.98c.43-15.33-18.11-8.42-28.6-10.43-5.05-.97-15.5-16.03-15.53,5.45-.02,13.44,10.79,17.16,20.16,8.99-2.51,11.75-19.82,10.28-21.93-1.05-1.67-8.94-1.68-27.11,10.94-27.12,10.25,0,8.98,15.22,22.98,10.18-1.09-24.47-37.62-25.97-45.96-5.98.64-.64,1.59-4.98,4.89-8.08,17.2-16.17,26.77-3.01,41.5-4.31,5.88-.52,19.9-5.8,24.97-9.1,1.93-1.26,3.6.22,2.57-4.47l-74.89-2.05c-5.51-.39-8.22-8.57-12.48-9.66-5.1-1.3-13.67,4.08-20.53-.27-.91,7.23,16.81,20.69,15.93,24.8-1.28,5.99-24.95,3.3-16.12,14.25,1.64,2.04,17.64,3.17,21.08,3,2.76-.14,11.41-2.43,13.07-4.11-4.08,9.77-1.92,20.66,2,29.96-4.6-3.77-11.92-3.86-16.45-6.02-3.11-1.49-4.09-9.12-13.54-5.94v-8s-13.81,9.29-13.81,9.29c-2.29,7.58,19.53,22.46-2.34,31.91,7.33,28.12,11.61,14.62,26.15,14.72,2.65.02,2.8,1.33,4,2l7.99,7.99c.25.45,1.78.93,2,2,.07,55.6-.13,111.24.09,166.86.09,22.25-2.84,49.34.1,71.63.52,3.98,1.63,9.36,5.81,11.18.19.63-.22,1.45,0,2,4.61,11.55,15.73,12.07,26.9,14.07l272.92-1.08c1.3-.61,1.51-2.66,1.97-3,3.32-2.39,15.99-13.77,15.99-16.98v-300.61h-70.95c-8.43,0-26.98-15.91-26.98-24.97v-72.91h-200.86c-1.65,0-10.83,5.53-12.83,7.15-10.66,8.64-10.93,22.62-9.83,35.48l2.68,3.31h163.88c3.35,0,8.56,10.92,9.04,14.94,1.48,12.48,1.47,45.51,0,58.02-.56,4.77-2.22,9.8-6.04,12.94ZM1103.05,291.61c3.27-3.27,3.82-30.92-1-35.95h-171.88c-8.1,8.53-5.49,24.07-3.22,34.79l22.21,1.16v62.92c0,2.41,4.33,12.02,7.03,12.96h2.95c-.58-1.95,2.02-4.19,2.02-4.97v-68.91h25.99s1.99,33.96,1.99,33.96l12.01,1.99c.33,11.1-3.87,19.72,9.98,21.98.32,5.94-.47,12.06,0,17.98,1.07,13.63,5.98,14.42,7.99,0,.78-5.61.15-12.12,2-17.98,14.2-2.13,9.87-9.57,7.99-19.97,5.01-1.49,9.25-1.15,13.99-3.99.39-.24,1.78-1.62,2-2,4.55-7.88.84-20.73,1.99-29.97h25.99v57.93c-12.52-.26-7.01,1.04-9.99,3.99-.25.25-3.44-.9-4.03,1.32-1.42,5.34,1.45,33.24.05,34.64l-29.99,3.98c-4.69.16-9.56-.85-14.12.88l-1.87,9.11h69.95v13.99s-71.94,0-71.94,0c-.42,4.18.65,7.45,3.99,9.98,1.97,1.48,1.78,1.77,4.78,2.12,11.2,1.29,58.18,1.76,68.11-.18,10.11-1.97,5.18-7.17,5.05-9.93-.06-1.33.02-2.67,0-3.99l3.79-50.71-2.7-13.29c-1.98-2.78-7.95-2.09-11.08-1.92v-59.93c6.03-.85,15.73,2.27,19.99-1.99ZM1502.76,259.65c-.32.27-2.84-.46-4.09,1.3-3.95,5.55-1.01,19.65-1.92,26.66-7.47,1.54-.6-7.83-7.98-5.98-.11-.64.08-1.34,0-2-2.53-6.21-25.19-3.87-31.98-3.99-50.15-.95-100.47.78-150.65-.09-2.42.47-.84,3.24-1.24,4.09-.32.68-1.91,1.43-2,2-.38,2.45.25,5.41,0,7.99-1.2,12.18.58,28.82-17.02,30.08-19.02,1.36-22.03-13.47-22.96-28.08-.21-3.3.14-6.69,0-9.99-4.43-3.41-15.94-3.32-19.99,0-11.66,1.35-18.77,13.79-19.99,24.96,4.22,76.19-5.58,158.3-.08,233.79,1.22,16.74,4.99,26.33,22.07,30.87,1.94.52,2.77,1.76,6.76,2.14,62.51,6,134.65-4.85,198.2-.06l4.89-2.09v-11.98c-.21-2.68-2.89-1.95-4.89-2.09-65.25-4.3-135.24,3.4-200.97.09l-10.11-5.24.13-148.57h5.98l1.52,139.38c.97,2.02,2.28,3.72,4.49,4.45.52.17,1.3-.08,2,0,6.42,3.81,21.51,1.89,29.98,2,2.66.03,5.33-.02,7.99,0,2,.02,4-.01,6,0,15.3.09,30.67,0,45.97,0,2,0,4,0,6,0,.67,0,1.33,0,2,0l101.03.05,2.89-2.05v-69.91c-2.35-2.38-.03-4.63,0-5.99.02-.67-.02-1.33,0-2,.59-21.12-5.68-44.68,15.99-55.93h6s0,5.99,0,5.99c-1.08.28-7.89,6.53-8.86,8.14-6.74,11.19-1.07,21.71-.98,32.78.52,62.51-3.27,125.43-1.74,187.78.54,21.79,11.07,23.66,30.48,25.06,23.43,1.69,47.53-2.25,70.03-2.26,21.27-.02,43.69,3.52,66.04,2.27,5.8-.33,20.81-1.39,25.41-2.56,3.52-.9,9.39-6.4,11.48-9.5,7.76-11.53,1.14-21.57,4.3-30.72,1.04-3,5.31-1.67,5.86-6.15,3.19-25.83-8.94-55.04-6.3-80.12,1.67-15.87,6.14-28.07,5.81-45.85-.1-5.25-4.9-14.18-7.67-18.91v-3.99c2.85-11.97,4.18-36.94-.98-47.96-1.78-3.81-10.27-10.14-13.97-9.98-1.34.06-.93,2.01-1.04,2.01-1.33,0-2.66,0-4,0-5.74-3.4-18.65-3.33-23.98,0-.67-.01-1.33.03-2,0-1.99-.09-4.01.14-6,.01l-1.19-8.26c-11.68-1.79-20.61-.4-30.79-7.73-.26-.54.26-1.46,0-2-1.84-3.77-3.32-9.95-8.96-9.95-1.68,0-2.74,1.95-3.03,1.96-1.33.06-2.67-.04-4,0,1.67-4.24-4.16-3.74-4.07-5.01.22-2.98,3.47-4.75,4.01-8.03,3.01-18.37.77-43.53.07-61.89-.27-6.99,1.22-17.48-.1-23.49-.33-1.51-12.4-14.66-14.68-15.66-3.12-1.37-25.7-4.89-27.22-3.76-.11,1.32.1,2.67.01,3.99-.04.66.02,1.33,0,2-4.52,4.78-.88,18.84-2,25.97-1.57,4.45-1.19,3.11-4,5.99-12.98,1.61-1.03-9.43-.1-15.08.95-5.78.89-33.77-1.8-37.55-1.26-1.76-3.78-1.03-4.09-1.3-.52-.45,1.88-3.47-2.86-4.15-12.76-1.83-9.41,2.7-11.13,4.15ZM743.3,437.42l18.97-11.34c15.82,12.62,51.51,16.56,50.97-10.62-51.98,5.37-88.85-50.61-55-93.94,37.36-47.82,111.73-12.82,102.99,45.98.6.66,15.67-5.3,16.82-6.14,2.67-1.94,7.33-17.1,7.1-20.69-.4-6.3-11.48-19.98-11.24-24.09.3-5.2,14.13-12.61,10.36-20.91-.65-1.43-17.22-17.52-18.46-17.84-6.31-1.61-12.82,10.42-19.56,9.98l-22.61-8.59-4.15-20.43-30.29-.23-4.89,19.08c-.57.98-18.69,9.31-20.51,9.63-9.95,1.74-12.31-7.89-21.13-9.25-4.01.7-19.46,15.31-20.59,19.52-1.63,6.06,11.15,15.47,10.36,20.12l-9.12,20.86-19.71,5.27-.34,28.37,22.21,6.68,7.77,19.64-9.65,19.54,17.72,19.39c-12.91-4.4-9.21-10.57-13.94-13.03-11.86-6.15-10.92,4.99-14.25,9.82-3.77,5.46-5.35,1.07-7.78,11.2l-9.98-2c-.25,9.16-9.36,44.62,7.98,35.96-.21,4.12-.27,8.32,2,11.98-17.44.44-1.77,21.59.11,29.88l5.98-.81c6.81-5-5.13-19.99-4.1-27.07l13.99,7.99c-4.15,14.04,5.67,14.04,7.7,21.43,1.72,6.27-6.94,17.04-8.17,24.05l-22.59,6.38,1.03,29.09c3.95,2.15,19.54,3.31,21.6,5.37,1.26,1.26,3.08,12.56,4.45,15.54,2.16,1.57,16.18-12,16.89-13.89.45-1.18-3.35-18.89-3-25.13.74-13.32,13.28-41.83,26.05-46.87-3.18,20.45,6.93,20.84,23.05,22,3.82.27,8.04-2.23,6.93,3.97-11.27.63-22.59,1.51-29.98,11.98l-1.86-11.13c-19.82-5.21-21.38,17.68-20.09,32.08,1.65,18.4,8.26,19.68,15.95,3.02.02.44,3.52,3.31,1.85,5.79-.31.46-4.25,1.22-5.93,3.03-2.95,3.18-4.78,7.13-7.86,10.2-9.97,9.94-50.56,43.1-51.97,54.06-2.08,16.09,14.46,23.73,26.65,14.5,15.1-17.9,32.47-33.45,49.26-49.63v6c1.94.24,4.11-.28,6,0-3.22,6.71-13.15,9.62-11.89,17.87,15.72,3.58,19.27,8.52,19.88,24.62,2.53,6.05,25.91,0,31.72,1.2,2.94-5.49,1.78-16.43,6.28-20.7.87-.83,20.64-9.86,21.82-10.08,6.69-1.25,13.19,13.12,24.09,8.04,1.56-.73,15.39-14.97,15.75-16.37,1.99-7.64-10.73-13.51-11.31-19.87-.45-4.93,9.95-18.26,9.7-27.57-.4-14.56-8.49-17.83-21.08-21.09.33,28.47-12.42,55.18-41,63.95.18-.07.84-1.96,2.24-2.87,3.15-2.06,10.68-.84,3.9-10.26-3.92-5.45-15.73-7.5-22.13-6.84,10.73-7.8,17.6-16.01,17.99-29.96.8,1.41,3.09,2.76,4.1,4.8,2.19,4.46,2.25,11.19,6,14.06s15.36,6.86,19.41,2.62c1.61-1.68,6.69-27.4,6.42-30.41-.46-5.08-7.72-9.3-7.95-15.05.4-.2.99-3.04,3.36-3.71,7.15-2.03,24.86,11.86,34.17,12.14l6.32,22.64c2.08,1.46,21.31,1.44,25.21,1,12.29-1.4,7.39-16.3,12.2-24.18l29.8-11.97,21.77,10.13,20.48-21.01-11.04-20.35c6.4-7.06,7.06-20.14,10.69-26.55,4.78-8.43,23.09-2.95,24.92-13.05.73-4.04.61-21.79-.98-24.99-4.58-6.54-16.48-3.24-22.15-7.83-1.57-1.27-9.48-21.08-10.05-24.04-2.37-12.29,9.88-19.68,8.9-24.74l-21.1-20.99c-6.25-1.63-10.47,6.21-15.1,8.22-10.88,4.74-24.57-9.76-36.21-10.29l-6.71-22.19c-6.09-3.34-28.72-2.4-32.2,3.31-2.26,3.69-1.67,11.15-4.5,15.48-3.89,5.94-23.95,10.84-30.95,15.21l-19.44-9.61c-2.85.49-17.79,13.68-19.46,16.47-5.81,9.73,4.97,13.41,7.26,21.03,2.73,9.08-8.46,21.68-9.64,31.5-3.33,2.91-7.92,1.81-11.51,2.5-2.52.49-7.58,1.97-7.99,2-.66.04-1.33-.02-2,0-14.15.41-38.33-4.67-51.96-7.99ZM1278.25,257.97c-8.12,2.79-7.32,47.1-1.36,50.62,8.73,3.03,14.43,1.27,15.88-8.14,1.06-6.85,1.65-38.59-3.83-41.82-3.11-1.42-7.52-1.75-10.69-.66ZM529.45,341.54l-81.92-81.89c3.15,21.02-8.42,53.95,2.25,72.64,1.38,2.41,8.72,9.26,10.72,9.26h68.95ZM851.22,363.5c4-72.79-105.8-67.89-93.45,4.53,3.87,22.69,29.42,38.72,51.48,37.42l-4.19-13.76c-30.62,2.57-46.6-31.97-28.65-56.01,14.3-19.15,46.02-17.09,57.67,4.02,5.5,9.98-.45,24.05,17.14,23.8ZM366.86,337.89c-14.07,9.23-8.64,27.36,9.36,23.32l7.12-12.26-16.48-11.06ZM699.59,433.14c1.55,2.41,7.08,2.99,9.38-1.07,2.87-5.07,3.58-14.58,8.03-19.98-6.99-19.92-21.08,15.34-17.41,21.05ZM627.39,471.37l-15.66,19.26c.35,4.24,3.05,9.9,8.3,8.47,2.65-.72,33.41-32.28,33.41-34.72-3.99-5.6-29.17-33.61-33.45-34.73-4.69-1.23-9.06,3.48-8.33,8.31,1.03,6.89,12.75,13.18,15.73,19.43h-56.96c-5.81,0-5.81,13.98,0,13.98h56.96ZM1167,457.39h-58.96c-5.81,0-5.81,13.98,0,13.98h58.96c-6.87,4.4-27.39,32.5-7.41,27.67,2.97-.72,32.72-31.37,32.72-34.66-3-4.76-30.85-33.73-33.2-34.2-4.8-.96-8.93,3.54-9.95,7.96l17.84,19.25ZM1035.1,489.35c-12.24,2.57-17.39-1.18-23.72,11.24-11.08,21.75,7.13,23.31,5.86,35.68-.89,4.79-5.58,4.96-8.12,9.01-5.14,8.2-.31,10.4,7.91,10.06.38,6.8-.55,13.62.64,20.42.68,3.9,1.72,7.45,6.42,5.45,5.7-2.42,1.91-20.09,3.1-25.87,20.31.77,15.65-17.64,15.9-32.04h37.97c5.26,24.01-.25,48.79-.17,72.94.04,11.8,6.63,28.2-.83,38.91h-116.92v-75.9l-10.07,3.34.09,72.57c-5.91,0-15.48-1.82-17.6,5.39-1.77,6.02-1.66,25.53,2.6,30.56h170.88c2.35-7.17,2.06-30.64-2-35.95-2.79-3.65-7.98-1.64-12-1.99l-1.99-117.86-2-2c-8.79-6.43-42.23,4.11-45.57-7.39-1.72-5.93,1.95-14.27-2.4-18.57-3.92-3.88-6.89,1.77-7.99,2ZM1068.86,624.95c1.85-8.13,6.4-36.51-3.19-39.33-3.72-1.09-17.31-1.12-20.62.56-5.25,2.66-2.83,13.55-14.85,15.12-3.62.47-16.85.56-19.76-.43-4.56-1.55-6.98-13.53-12.7-15.27-4.07-1.24-20.76-1.88-22.33,2.9.7,6.71-3.34,34.32,3,36.39l90.44.06Z"/>
      <path class="cls-14" d="M381.56,387.48c3.82-3.14,5.49-8.16,6.04-12.94,1.46-12.5,1.48-45.53,0-58.02-.48-4.02-5.68-14.94-9.04-14.94h-163.88l-2.68-3.31c-1.1-12.87-.83-26.84,9.83-35.48,2-1.62,11.18-7.15,12.83-7.15h200.86v72.91c0,9.06,18.55,24.97,26.98,24.97h70.95v300.61c0,3.21-12.67,14.59-15.99,16.98l-282.84.05c-7.68-.44-13.19-5.79-18.94-10.03-.22-.55.19-1.36,0-2-5.41-17.75-1.5-56.19-1.92-76.98-1.13-57.17-3.06-115.24-2.08-172.69.1-6.02-1.15-12.46,2-17.98,5.31-.14,10.67.06,15.99,0,9.97-.11,20.01.04,29.98,0,4.66-.02,9.33.01,13.99,0,31.42-.08,70.78,2.98,101.06.1,1.87-.18,4.65.4,4.86-2.1v-2h2ZM245.66,427.43v74.9l3,3h69.95c9.19-7.94,3.05-17.64,2.92-26.88-.24-16.93,4.46-36.82-2.92-51.02h-72.95ZM365.04,427.91c-45.18,7.7-36.99,80.68,11.23,77.28s46.43-87.11-11.23-77.28ZM465.16,427.8c-4.77-2.78-8.78,1.47-11.34,4.94-3.85,5.22-31.82,55.6-33.39,60.51-1.03,3.2-2.2,8.98.99,11.21,3.36,2.34,79.59,2.09,81.87-1.31l-1.38-9.24c-8.13-7.99-31.68-63.15-36.75-66.1ZM244.66,615.18h79.94l3.03-4.9-38.27-69.72c-3.4-5.74-7.14-3.58-10.64.81-8.54,10.71-23.51,40.42-30.11,53.8-1.97,4.01-11.13,17.89-3.95,20.02ZM339.59,597.21c.39.8,1.66,1.37,2,2,.98,1.81,4.36,5.77,6,7.99,1.12,1.53-.06,4.2,4.06,6.89,4.78,3.13,15.15,4.98,20.93,5.17,3.76.12,8.17,1.69,6.99-4.08,1.32.07,2.67,0,4,0,1.11,0,2.7,3.89,8.76-.22,3.98-5.53,9.51-10.1,13.23-15.76.41-.62,1.45-2.88,2-3.99.13-.27,1.56-.7,2-2,.19-.57-.17-1.35,0-2l8.97-5.98,11.02,13.97c.38,1.01-.39,3.01,0,3.99.61,1.53,1.94,1.87,2,2,.25.57-.25,1.46,0,2,.53,1.1,1.62,1.47,2,2,1.34,1.84,1.33,4.23,4,5.99.72.48,1.33,2.21,2.96,1.97,11.66-1.12,23.2.96,34.65,1.58,3.87.21,6.77,1.35,8.35-3.54.66-.07,1.34.05,2,0l2-2c1.29-1.78,1.31-4.02,2-5.99h3.99c.38-2.51-.47-5.68,0-7.99.13-.64-.14-1.37,0-2,.05-.22,1.28-1.24,2-3.99,1.41-5.39,7.38-23.04,5.15-26.09l-76.16-1.91c-5.67,1.04-4.43,5.68-4.94,6.03-.86.61-6.09-.43-7.99,0-.75-6.58-4.92-14.74-9.15-19.82-28.9-34.73-84.79.89-62.8,45.78Z"/>
      <path class="cls-16" d="M805.26,443.41c3.59-.69,8.17.41,11.51-2.5,1.18-9.82,12.36-22.42,9.64-31.5-2.29-7.62-13.07-11.3-7.26-21.03,1.66-2.79,16.6-15.98,19.46-16.47l19.44,9.61c7-4.37,27.06-9.27,30.95-15.21,2.83-4.33,2.24-11.78,4.5-15.48,3.48-5.71,26.11-6.65,32.2-3.31l6.71,22.19c11.63.53,25.33,15.03,36.21,10.29,4.63-2.02,8.86-9.85,15.1-8.22l21.1,20.99c.98,5.06-11.27,12.45-8.9,24.74.57,2.96,8.48,22.77,10.05,24.04,5.67,4.59,17.56,1.29,22.15,7.83,1.59,3.2,1.71,20.95.98,24.99-1.83,10.1-20.14,4.62-24.92,13.05-3.63,6.41-4.29,19.48-10.69,26.55l11.04,20.35-20.48,21.01-21.77-10.13-29.8,11.97c-4.81,7.88.08,22.78-12.2,24.18-3.89.44-23.13.46-25.21-1l-6.32-22.64c-9.31-.28-27.02-14.17-34.17-12.14-2.37.67-2.96,3.51-3.36,3.71-4.19,2.1-8.61,4.32-13.04,5.97-2.17-.05-11.04-7.91-12.95-9.97-2.17-2.33-7.88-8.49-8.11-11.09-.41-4.68,3.6-6.71,4.11-8.88.15-.63-.15-1.37,0-2,15.25-8.73-4.09-24.83-4.46-37.48-7.37-3.53-15.6-4.83-23.52-6.47-.5-10.7-1.16-23.97,2-33.96.67-.02,1.34.04,2,0l7.99-2ZM898.75,384.04c-37.01,4.46-67.3,37.4-69.47,74.37-3.85,65.62,69.85,108.74,124.92,72.93,72.98-47.46,31.81-157.82-55.45-147.3Z"/>
      <path class="cls-11" d="M1532.74,279.62c11.42-.07,21.63-.28,29.69,9.28,1.34,1.59,6.29,10.49,6.29,11.69v82.89h-12s2.01-41.95,2.01-41.95h-323.77v206.73c0,2.81,9.25,13.13,13.99,10.99h205.85v11.98h-209.85c-17.08-4.54-20.85-14.14-22.07-30.87-5.5-75.49,4.3-157.6.08-233.79,1.23-11.18,8.33-23.61,19.99-24.96,6.28-.73,13.55.52,19.99,0,.14,3.3-.21,6.69,0,9.99-30.69-4.26-24.11,10.38-27.89,33.15-.46,1.66,2.05,4.8,2.9,4.8h318.77v-28.96c0-10.87-20.64-9.49-27.98-8.99.15-3.32-.09-6.67,0-9.99.4-.42,3.3-.37,4-2Z"/>
      <path class="cls-21" d="M741.3,437.42l-17.72-19.39,9.65-19.54-7.77-19.64-22.21-6.68.34-28.37,19.71-5.27,9.12-20.86c.79-4.65-11.99-14.06-10.36-20.12,1.13-4.21,16.57-18.82,20.59-19.52,8.82,1.36,11.18,10.99,21.13,9.25,1.82-.32,19.94-8.65,20.51-9.63l4.89-19.08,30.29.23,4.15,20.43,22.61,8.59c6.74.44,13.25-11.59,19.56-9.98,1.24.32,17.81,16.41,18.46,17.84,3.78,8.3-10.05,15.72-10.36,20.91-.24,4.11,10.84,17.79,11.24,24.09.23,3.59-4.43,18.75-7.1,20.69-1.15.84-16.22,6.8-16.82,6.14,8.75-58.8-65.63-93.8-102.99-45.98-33.85,43.33,3.02,99.31,55,93.94.54,27.18-35.15,23.24-50.97,10.62l-18.97,11.34c-.66-.16-1.43.19-2,0Z"/>
      <path class="cls-2" d="M1488.77,291.61c.7,4.79,1.63,11.93,4,15.98.05.69-.13,1.42,0,2,.21.94,1.08,1.69,2,2,.65.66,1.39,1.31,2,2,8.15,9.16,17.29,8.9,25.98,0,2.81-2.88,2.43-1.54,4-5.99,2.47-6.99,1.68-8.9,2-15.98,7.34-.5,27.98-1.89,27.98,8.99v28.96h-318.77c-.85,0-3.36-3.13-2.9-4.8,3.78-22.77-2.8-37.41,27.89-33.15.93,14.61,3.94,29.44,22.96,28.08,17.6-1.26,15.81-17.89,17.02-30.08l185.87,2Z"/>
      <path class="cls-8" d="M1476.78,419.44c8.31-2.15,24.58,1.58,33.99-.01v12h-28.99c-4.26,0-4.74,9.07-5,11.98-5.82,65.77,4.24,139.93.13,206.61,2.04,12.86,11.92,10.65,21.86,11.11,50.79,2.34,103.18-.88,153.84-1.04l5-4.99.91-214.54c-1.79-15.56-22.39-7.1-33.85-9.11v-12c.67.03,1.34-.01,2.01,0,7.97.16,16.01-.04,23.98,0,1.33,0,2.66,0,4,0,24.33,9.07,8.59,37.82,15.99,55.93v3.99c-1.98,1.84-2.16,4.22-2.14,6.75.37,58.34.03,116.7.15,175.01-2.09,3.1-7.96,8.6-11.48,9.5-4.6,1.17-19.61,2.24-25.41,2.56-22.35,1.25-44.76-2.28-66.04-2.27-22.5.02-46.59,3.95-70.03,2.26-19.41-1.4-29.94-3.26-30.48-25.06-1.53-62.34,2.26-125.27,1.74-187.78-.09-11.07-5.76-21.59.98-32.78.97-1.61,7.78-7.86,8.86-8.14Z"/>
      <path class="cls-12" d="M1043.09,487.35v25.98s47.97-.01,47.97-.01l2,2v119.85s13.99-.01,13.99-.01c4.06,5.31,4.35,28.79,2,35.95h-170.88c-4.26-5.03-4.36-24.54-2.6-30.56,2.12-7.21,11.68-5.38,17.6-5.39l-.09-72.57,10.07-3.34v75.9h116.92c7.46-10.71.87-27.11.83-38.91-.08-24.15,5.43-48.93.17-72.94h-37.97c-.26,14.4,4.4,32.81-15.9,32.04-1.19,5.78,2.61,23.45-3.1,25.87-4.7,2-5.74-1.55-6.42-5.45-1.18-6.8-.26-13.62-.64-20.42-8.22.34-13.05-1.86-7.91-10.06h23.99c2.03-2.02-2.93-48.79,1.99-55.93,1.11-.23,4.08-5.88,7.99-2ZM1101.05,645.15h-155.89l2.21,15.76,2.68.34,149.01-.11,1.99-15.99Z"/>
      <path class="cls-12" d="M1103.05,291.61l-29.98,2c-7.95-4.38-18.95-.98-27.99-2.01v33.97c-.21.38-1.6,1.76-1.99,2-4.66,0-9.33.01-13.99,0-13.59-.04-26.53,1.77-39.97,0l-1.99-33.97h-25.99v68.92c0,.78-2.6,3.02-2.02,4.98h-2.95c-2.69-.96-7.03-10.56-7.03-12.97v-62.92l-22.21-1.16c-2.27-10.73-4.87-26.26,3.22-34.79h171.88c4.82,5.03,4.27,32.68,1,35.95ZM1095.05,265.64h-154.89l-2.68,3.3-.31,12.67h157.89v-15.98ZM1035.1,317.57c-1.15-8.28,3.01-19.62-3-25.97h-34.98v25.97h37.97Z"/>
      <path class="cls-23" d="M1586.7,403.46c10.17,7.33,19.11,5.94,30.79,7.73l1.19,8.26c1.99.13,4-.1,6-.01v12c11.45,2.01,32.05-6.45,33.84,9.11l-.91,214.54-5,4.99c-50.67.17-103.06,3.38-153.84,1.04.34-8.04-7.52-5.72-9.98-9.97l157.88-2.02v-207.74c-5.98.91-15.35-1.49-20.66.33-3.08,1.05-7.89,11.66-10.32,11.66h-96.93c-.58,0-3.57-7.25-6-9.99,8.2,8.55,13.34,8.98,25.09,7.99,6.09-.52,5.15,1.07,4.89-5.99,10.04.29,65.06,1.41,69.14-1.8,4.64-3.65,5.27-27.53-2.58-29.76-12.13-3.44-14.79,5.63-22.59-10.38Z"/>
      <path class="cls-24" d="M795.27,543.28c1.96-.11,4.03-.08,6,0-4,8.65-23.83,17.65-19,27.92.49,1.04,9.98,10.51,11.04,11,10.46,4.87,17.94-8.3,23.95-14.96.99-.14,2.37-2.48,4.05-1.14,2.71,2.27,1.33,6.05,1.95,7.13-.39,13.95-7.26,22.16-17.99,29.96-2.61.27-4.39,1.69-6,2-4.57.33-9.49-.47-13.99,0-1.3.14-2.97-.29-4,0-.92.26-1.39,1.52-2,2-3.2,2.55-5.3,7.39-7.99,9.99-16.79,16.18-34.16,31.73-49.26,49.63-12.19,9.22-28.72,1.59-26.65-14.5,1.41-10.96,42-44.12,51.97-54.06,3.08-3.07,4.91-7.02,7.86-10.2,1.68-1.81,5.62-2.57,5.93-3.03,1.67-2.48-1.83-5.35-1.85-5.79-.31-6.7,2.19-18.58,6-23.97,7.38-10.47,18.71-11.36,29.98-11.98ZM710.54,647.32c-7.68,2.46-1.78,17,6.9,10.92,4.91-3.44,1.74-13.68-6.9-10.92Z"/>
      <path class="cls-19" d="M821.25,623.17c28.58-8.77,41.33-35.47,41-63.95,12.58,3.26,20.67,6.53,21.08,21.09.26,9.3-10.15,22.64-9.7,27.57.58,6.36,13.3,12.22,11.31,19.87-.36,1.4-14.2,15.65-15.75,16.37-10.9,5.08-17.4-9.3-24.09-8.04-1.18.22-20.95,9.25-21.82,10.08-4.49,4.27-3.33,15.21-6.28,20.7-5.81-1.19-29.19,4.86-31.72-1.2-.61-16.11-4.16-21.04-19.88-24.62-1.26-8.25,8.68-11.16,11.89-17.87,16.15,2.37,27.46,6.71,43.97,0Z"/>
      <path class="cls-19" d="M789.27,487.35c2.5.68,16.74,6.02,17.93,7.04,3.12,2.65,4.08,7,4.05,10.94-.44.04-2.21,2.01-4.83,2.08-13.29.35-29.31-1.2-39.14,9.9-.62.2-1.44-.22-2,0-12.78,5.03-25.32,33.55-26.05,46.87-.35,6.24,3.45,23.95,3,25.13-.72,1.88-14.73,15.46-16.89,13.89-1.37-2.98-3.19-14.28-4.45-15.54-2.06-2.07-17.66-3.22-21.6-5.37l-1.03-29.09,22.59-6.38c1.23-7.01,9.89-17.78,8.17-24.05-2.03-7.39-11.85-7.39-7.7-21.43.13-.45,1.47-1.23,2-2l4-3.99c1.3-1.14,3.76-3.84,4-3.99,2.93-1.85,5.54-4.42,8.99-5.34,3.81-.02,7.95,6.28,11.52,7.84,11.75,5.14,22.39-10.59,37.45-6.5Z"/>
      <path class="cls-23" d="M1528.75,279.62c.09-1.32-.12-2.67-.01-3.99,1.51-1.13,24.09,2.39,27.22,3.76,2.27,1,14.34,14.15,14.68,15.66,1.32,6.01-.17,16.5.1,23.49.7,18.35,2.95,43.52-.07,61.89-.54,3.28-3.79,5.05-4.01,8.03-.1,1.27,5.73.77,4.07,5.01-3.25.1-6.92-.38-9.99,0,3.01-8.34-5.14-7.87-6.04-12.91-1.05-5.87,1.37-35.72.06-37.03-51.93.13-103.97-.14-155.9.01-22.54.06-45.44-.83-67.95,0-3.99.15-8.02-.14-12,0v5.98s12,2,12,2l2,2v6c-1.31.17-2.7-.15-4,0-.45-1.74,1.29-5.68-1.18-6.03l-16.82.05v5.98c-.38-.34-2.74.41-3.86-.09l3.89-10.84-3.35-2.71-68.62-2.33v37.95h5.99s1.88-15.14,1.88-15.14l16.11,1.15c1.72-5.78-4.55-3.48-5.76-7.18-.98-3-.78-7.59,1.75-9.89,1.99-2.23,3.72,1.09,4.02,1.1l-2,7.98c4.49-1.97,9.6,1.73,11.99,2.01-1.55,2.59-4.95,5.69.95,6,13.7.73,27.27,2.43,41.01,1.98,1.54-1.46-2.25-8.48-3.99-9.98,5.81-.46,12.32.64,17.99,0,.54,2.06-.9,5.17,1.92,7.04,6.61,1.88,13.24,2.51,20.07,2.94,24.82,1.58,52.73-.01,77.94,0v2c-6.92-.05-23.54-1.39-28.71-.07-2.27.58-.96,3.67-1.27,4.06-.23.29-1.33-.22-2,0h-2c-.67-.22-1.77.29-2,0-.32-.39,1-3.48-1.27-4.06l-42.71.06v12.01c8.95-.19,11.31-2.26,10,7.98-1.41-1.26-4.08-1.76-6-2-28.15-3.5-63.04,2.61-91.94-.01-.64,7.84-.19,12.82,2.01,19.98.32,1.03-.21,2.75,0,3.99-1.28-.18-5.73-1.93-6.07-3.34l.07-26.62h33.99s-.01-11.98-.01-11.98h-41.97c2.16,55.04-2.84,112.21-.15,167.02.12,2.54-.03,4.94,2.14,6.76v2c-2.21-.73-3.52-2.43-4.49-4.45l-1.52-139.38h-5.98l-.13,148.57,10.11,5.24v2c-4.74,2.15-13.99-8.18-13.99-10.99v-206.73h323.77l-2.01,41.94h12s0-82.89,0-82.89c0-1.2-4.95-10.11-6.29-11.69-8.06-9.56-18.27-9.35-29.69-9.28-1.33,0-2.66,0-4,0ZM1296.91,373.5l1.15,10.02,44.83-.02v-10c-13.61-3.34-32.38-3.34-45.98,0Z"/>
      <path class="cls-27" d="M195.69,397.47c-14.54-.1-18.82,13.4-26.15-14.72,21.87-9.45.05-24.33,2.34-31.91l13.81-9.29v8c9.44-3.18,10.43,4.46,13.54,5.94,4.54,2.17,11.85,2.26,16.45,6.02.25.59-.27,1.5,0,2,1.98,3.67,4.46,5.88,7.99,7.99.54.32,4.82,1.68,6,2,7.12,1.93,20.42,6.43,21.98-3.99,2.13-1.34,2.6-2.1,4-3.99,11.34-5.88,10.38,2.82,14.06,6.84,7.33,8,36.05,7.2,44.03.28,2.34-2.03,5.3-8.73,6.88-9.12,5-1.23,2.94,8.87,10.97,9.98,9.09,1.26,10.74-3.26,13.99-3.99,7.03-1.59,37.08,5.72,35.97,17.98h-2c-56.33,2.66-115.93-3.57-171.88,0-1.99.13-4.02-.16-6,0v3.99c-2.02.24-5.29-.71-5.99,2l-1.97.99,1.97,1.01v2Z"/>
      <path class="cls-21" d="M529.45,341.54h-68.95c-2.01,0-9.35-6.84-10.72-9.26-10.67-18.68.91-51.61-2.25-72.64l81.92,81.89Z"/>
      <path class="cls-1" d="M1068.86,624.95l-90.44-.06c-6.34-2.07-2.3-29.69-3-36.39,1.56-4.78,18.26-4.14,22.33-2.9,5.72,1.74,8.14,13.72,12.7,15.27,2.91.99,16.13.9,19.76.43,12.01-1.57,9.6-12.46,14.85-15.12,3.31-1.68,16.9-1.65,20.62-.56,9.59,2.82,5.04,31.19,3.19,39.33Z"/>
      <path class="cls-27" d="M821.25,525.3c-.51,2.18-4.52,4.2-4.11,8.88.23,2.6,5.94,8.76,8.11,11.09h-5.99c-2.67,2.49,8.08,12.36,5.99,0,1.91,2.06,10.78,9.92,12.95,9.97,4.42-1.65,8.84-3.87,13.04-5.97.23,5.74,7.49,9.97,7.95,15.05.27,3.01-4.81,28.73-6.42,30.41-4.05,4.23-15.52.36-19.41-2.62s-3.81-9.6-6-14.06c-1-2.05-3.29-3.4-4.1-4.8-.62-1.08.76-4.86-1.95-7.13-1.68-1.34-3.06,1-4.05,1.14-8.47,1.21-13.31,6.29-21.97,1.97.03-11.81,9.62-14.11,17.96-18.98.67-2.72-6.24-7.3-8.24-8.04-3.01-1.12-3.55,1.09-3.75,1.08-1.96-.08-4.04-.11-6,0,1.11-6.2-3.11-3.69-6.93-3.97-16.12-1.16-26.23-1.54-23.05-22,.56-.22,1.38.2,2,0,2.97-.99,16.14-3.91,18.54-3.59l35.43,11.58Z"/>
      <path class="cls-27" d="M741.3,437.42c.56.19,1.34-.16,2,0,13.63,3.32,37.82,8.4,51.96,7.99-3.16,9.98-2.49,23.25-2,33.96,7.92,1.64,16.15,2.94,23.52,6.47.37,12.64,19.71,28.74,4.46,37.48,2.15-8.74,1.92-19.17-9.99-17.98.03-3.94-.93-8.29-4.05-10.94-1.2-1.02-15.43-6.36-17.93-7.04h5.99c.82-.86-1.9-6.07-1.99-7.99-8.61-1.78-17.29-1.86-26.42-4.56-22.66-6.7-35.93-25.91-61.52-25.4.21-1.26-.27-2.85,0-3.99,2.43-10.12,4.02-5.74,7.78-11.2,3.33-4.83,2.39-15.97,14.25-9.82,4.73,2.45,1.03,8.62,13.94,13.03Z"/>
      <path class="cls-10" d="M851.22,363.5c-17.59.25-11.63-13.82-17.14-23.8-11.64-21.11-43.36-23.17-57.67-4.02-17.96,24.04-1.98,58.58,28.65,56.01l4.19,13.76c-22.06,1.3-47.61-14.72-51.48-37.42-12.35-72.41,97.44-77.31,93.45-4.53Z"/>
      <path class="cls-9" d="M1492.77,371.5c.67-.02,1.33.02,2,0v37.95c-11.53.63-13-1.7-23.98,3.99-21.67,11.24-15.4,34.8-15.99,55.93-6.04,1.11-3.87-3.05-4-6.9-.34-10.07-2-23.53-2-32.05v-33.96c0-.91,2.16-4.31,2.22-7.92.09-5.07-2.8-9.89-2.22-15.05,13.26-4.05,29.61-1.49,43.97-2Z"/>
      <path class="cls-10" d="M1167,457.39l-17.84-19.25c1.03-4.42,5.15-8.92,9.95-7.96,2.35.47,30.19,29.44,33.2,34.2,0,3.3-29.75,33.95-32.72,34.66-19.98,4.83.54-23.27,7.41-27.67h-58.96c-5.81,0-5.81-13.98,0-13.98h58.96Z"/>
      <path class="cls-10" d="M627.39,471.37h-56.96c-5.81,0-5.81-13.98,0-13.98h56.96c-2.97-6.25-14.7-12.54-15.73-19.43-.72-4.82,3.64-9.54,8.33-8.31,4.28,1.13,29.46,29.13,33.45,34.73,0,2.44-30.77,34-33.41,34.72-5.25,1.43-7.95-4.23-8.3-8.47l15.66-19.26Z"/>
      <path class="cls-27" d="M213.68,331.55c-1.66,1.68-10.32,3.97-13.07,4.11-3.44.17-19.44-.96-21.08-3-8.83-10.95,14.83-8.26,16.12-14.25.88-4.11-16.84-17.58-15.93-24.8,6.85,4.35,15.43-1.03,20.53.27,4.27,1.09,6.97,9.27,12.48,9.66l74.89,2.05c1.03,4.69-.64,3.21-2.57,4.47-5.08,3.3-19.09,8.58-24.97,9.1-14.73,1.3-24.3-11.86-41.5,4.31-3.3,3.1-4.25,7.43-4.89,8.08Z"/>
      <path class="cls-17" d="M1358.87,391.48c.29.26-1.07,3.53,1.25,4.09,4.41,1.07,15.08-2.25,17.87,1.77,2.65,8.54-3.07,15.1,6.82,19.2l-3.95,10.89c-2.55,0-5.45.02-7.99,0l-6.02-10.95c7.9-3.48,6.33-7.06,6.02-15.02l-10.87-.05-1.98,10.18-10.91,5.1c-1.94,5.41,1.01,7.61,1.77,10.74.4,1.65-.27,4.12,0,5.99-6.28.09-12.61,0-18.91-.13-2.42.64-.5,5.15-1.08,6.12-.29.48-6.42-1.16-3.99,7.99h3.99c0,.66-.05,1.34,0,1.99.1,1.32-.09,2.68.02,3.99l1.97-1.99c6.65-.04,13.34.05,19.99,0v5.99c-1.09.14-2.4-.41-3.5.38l-.5,89.5v2c-2,0-4,0-6,0v-2l-.28-86.61-3-3-16.72-.27c.79-18.89-6.72-36.2,20.01-31.96v-10.01s-45.98.01-45.98.01v-2c12.75-.72,26.44,1,39.07,0,6.13-.48,5.14.99,4.9-6,3.99-.14,8.02.12,12,.01v-17.99c1.9.24,4.57.74,5.98,2Z"/>
      <path class="cls-21" d="M1488.77,281.62c.52,3-.45,6.89,0,9.99l-185.87-2c.25-2.58-.38-5.54,0-7.99h185.87Z"/>
      <path class="cls-13" d="M1029.1,397.47c11.25-.39,22.71,0,33.98,0h27.98c.32,6.34,1.9,13.86,2,21.97.02,1.33-.06,2.67,0,3.99.3,4.45.09,7.04-4.99,8-20.14,3.8-51.52-2.84-72.95,0-3.34-2.52-4.41-5.8-3.99-9.98h71.95s-.01-13.99-.01-13.99h-69.95l1.87-9.11c4.56-1.73,9.43-.72,14.12-.88Z"/>
      <path class="cls-11" d="M305.61,329.56c-.49,1.03.68,4.14-.11,5.82-2.46.83-5.57-.31-7.88.17-4.18-15.26-31.13-5.65-9.99,3.99,2.53,1.15,6.81,1.82,9.99,2.98,2.82,1.03,6.24,4.67,8,5.01,14.69,32.77-37.53,36.11-39.97,8h9.99c.55.73,1.47,1.27,2,1.99,4.72,6.47,7.63,7.79,16.11,5.11l1.67-8.92c-2.5-1.04-5.19-1.48-7.79-2.18-.59-.16-1.32.12-2,0-45.49-14.14,1.95-54.83,19.99-21.97Z"/>
      <path class="cls-28" d="M1560.72,393.47c3.07-.38,6.75.1,9.99,0,1.33-.04,2.67.06,4,0l11.99,7.99c.26.54-.26,1.46,0,2,7.8,16.01,10.46,6.94,22.59,10.38,7.86,2.23,7.22,26.11,2.58,29.76-4.09,3.22-59.11,2.09-69.14,1.8-5.33-.15-14.43,1.09-18.75-.28-3.63-1.15-2.45-4.15-3.23-5.71v-2c.43-6.51-.62-13.56,0-19.97l4-3.99c2.64-.16,5.37.23,7.99,0,4.41-.38,4.09-.3,7.99-2,8.94-3.89,5.56-5.89,9.99-11.98l2-2c.59-.6.76-2.38,2.06-2.99,2.41-1.11,3.77-.74,5.93-1.01ZM1560.72,417.44c-.23-.27-2.91.64-3.65-.26-2.42-2.95,3.44-13.62-4.31-11.72-2.31,16.27-14.27,10.62-26.14,12.85-3,2.09-3,20.14,0,22.22l82.04-1.15c6.09-31.67-6.81-16.62-19.97-22.93-5.34-2.56-7.47-19.46-17.96-16.98-.16,6.33,5.88,3.79,7.19,11.91.81,5.03-.84,4.94-3.2,8.05,2.12-14.95-14.33-20.31-13.99-2Z"/>
      <path class="cls-13" d="M213.68,331.55c8.34-19.99,44.87-18.49,45.96,5.98-14.01,5.03-12.73-10.19-22.98-10.18-12.61,0-12.6,18.18-10.94,27.12,2.11,11.33,19.42,12.8,21.93,1.05.79-.69,1.37-1.08,2-2,11.51-.52,12.33,3.38,6,11.98-1.4,1.9-1.87,2.66-4,3.99-7.29,4.58-13.58,4.48-21.98,3.99-1.18-.32-5.46-1.68-6-2l-7.99-7.99c-.27-.49.25-1.41,0-2-3.92-9.3-6.07-20.19-2-29.96Z"/>
      <path class="cls-27" d="M1522.75,407.46c-.24,1.9.35,4.24,0,5.99-.25,1.25-1.89,2.92-2,3.99-.62,6.41.43,13.46,0,19.97l-1.97,1.01c.54.56,1.77.6,1.97.99.78,1.56-.4,4.56,3.23,5.71,4.33,1.37,13.42.13,18.75.28.26,7.05,1.2,5.47-4.89,5.99-11.75,1-16.89.56-25.09-7.99-.32-.36.33-1.77,0-2l-1-1.96-1,1.96c-7.82.9-17.61-2.27-23.98,2-2.92,1.95-4.5,9.27-9.99,0,.26-2.91.73-11.98,5-11.98h28.98v-12c-9.39,1.59-25.66-2.14-33.98.01v-6s-6,0-6,0c10.98-5.7,12.46-3.37,23.98-3.99,1.99-.11,4.01.14,6,0,4.62-.32,9.38.36,13.99,0,.55-.04,1.49-1.94,2-2,.66-.07,1.34.09,2,0,1.28-.17,2.77.22,4,0Z"/>
      <path class="cls-23" d="M1670.64,479.36c2.77,4.74,7.58,13.66,7.67,18.91.33,17.78-4.13,29.98-5.81,45.85-2.65,25.08,9.49,54.29,6.3,80.12-.55,4.48-4.83,3.15-5.86,6.15-3.16,9.15,3.46,19.19-4.3,30.72-.12-58.31.22-116.67-.15-175.01-.02-2.53.17-4.91,2.14-6.75Z"/>
      <path class="cls-11" d="M313.61,327.56c-.58-2.02.39-5.58,0-7.98l11.81.2,11.18,35.74,13-35.94c3.88.32,8.2-.47,11.99,0l-15.99,49.93c-3.25.74-4.9,5.25-13.99,3.99-4.21-10.8-10.6-23.08-13.99-33.96-1.23-3.94-3.18-9.15-4-11.98Z"/>
      <path class="cls-16" d="M1035.1,489.35c-4.92,7.14.04,53.9-1.99,55.94h-23.99c2.53-4.05,7.23-4.23,8.12-9.02,1.27-12.37-16.94-13.93-5.86-35.68,6.33-12.42,11.48-8.68,23.72-11.24Z"/>
      <path class="cls-22" d="M517.46,671.11c-.46.33-.67,2.39-1.97,3l-272.92,1.08c-11.17-1.99-22.28-2.52-26.9-14.07,5.75,4.25,11.26,9.6,18.94,10.03l282.84-.05Z"/>
      <path class="cls-27" d="M349.58,319.57c-6.02,4.35-4.8,19.15-13.02,18.11-6.26-.79-8.93-16.98-11.24-21.82l-11.7-.29,1.94-7.02c6.85-3.54,14.56,1.06,20.85.87,5.3-.16,47.52-11.19,44.97,2.87-.12.63-7.25,9.94-7.81,10.27-7.27,4.37-6.67-2.33-11.99-2.98-3.79-.47-8.11.32-11.99,0Z"/>
      <path class="cls-23" d="M1430.81,429.43c6.68,6.68-3.88,29.09,6.07,32.97l-4.04,5.98c4.37,6.36,8.3,1.8,11.96,1,5.35-1.17,4.27-.08,9.99,2-.03,1.36-2.35,3.61,0,5.99h-45.98s-.02,16.83-.02,16.83l46,1.15v5.99c-2.13-1.02-5.68,2.01-6,2-1.09-.04-3.04-1.97-4-2-13.94-.41-28.03.29-41.98.01v-29.97c4.71.53,13.28.51,18,0,6.93-.76,5.57-2.52,0-5.99-.01-1.33,0-2.66,0-3.99l6.96,2,3-2.99-9.86-3.11-.1-5.88c1.33-.07,2.67.08,4,0s2.67.13,3.99.01l-1.98-21.97h3.99Z"/>
      <path class="cls-27" d="M805.26,603.2c6.4-.65,18.2,1.39,22.13,6.84,6.78,9.42-.76,8.2-3.9,10.26-1.39.91-2.05,2.8-2.24,2.87-16.5,6.71-27.82,2.37-43.97,0-1.89-.28-4.06.24-6,0v-6c2.7-2.59,4.8-7.43,8-9.99l2-2c1.02-.29,2.7.14,4,0,4.08,5.38,10.69.62,13.99,0,1.6-.3,3.39-1.73,6-2Z"/>
      <path class="cls-11" d="M1278.25,257.97c3.17-1.09,7.58-.76,10.69.66,5.49,3.24,4.89,34.97,3.83,41.82-1.45,9.4-7.15,11.16-15.88,8.14-5.96-3.52-6.76-47.83,1.36-50.62Z"/>
      <polygon class="cls-8" points="1454.8 477.36 1454.8 495.34 1408.8 494.19 1408.82 477.35 1454.8 477.36"/>
      <path class="cls-17" d="M1296.91,417.44v131.83c-2-.01-4,.02-6,0v-131.83h6Z"/>
      <path class="cls-27" d="M765.29,555.26c-3.8,5.39-6.3,17.27-6,23.97-7.69,16.66-14.31,15.38-15.95-3.02-1.29-14.4.26-37.29,20.09-32.08l1.86,11.13Z"/>
      <path class="cls-27" d="M703.33,477.36c.22-1.52,3.17-4.78,2.09-7.88,12.13-.98,22.74,6.15,33.67,10.08l-.18,5.46-7.61,6.31c-.24.15-2.69,2.86-4,3.99-.34.29-2.67-.65-3.67.33s-.02,3.22-.32,3.66c-.53.76-1.87,1.55-2,2l-13.99-7.99c-.87-.48-1.48-1.16-2-2-2.27-3.66-2.21-7.87-2-11.98.03-.66-.09-1.36,0-2Z"/>
      <path class="cls-22" d="M215.68,659.13c-4.18-1.82-5.29-7.2-5.81-11.18-2.94-22.3-.01-49.38-.1-71.63-.22-55.62-.01-111.27-.09-166.86h2c-.98,57.45.95,115.52,2.08,172.69.41,20.79-3.49,59.23,1.92,76.98Z"/>
      <path class="cls-6" d="M1073.07,353.53c4.08.08,5,.28,9.99,0,3.13-.17,9.1-.87,11.08,1.92l2.7,13.29-3.79,50.71c-.1-8.11-1.68-15.63-2-21.97-.58-11.45.91-23.74,0-35.04-.29-3.69,1.72-5-3.02-4.95-4.41.05-6.09.27-6.98,5.04-1.73,9.31.06,25.49,2,34.96h-9.99l-.28-36.67-2.95-3.04-6.76-.24v39.95c-11.27,0-22.73-.39-33.98,0l29.99-3.98c1.4-1.4-1.46-29.3-.05-34.64.59-2.23,3.78-1.07,4.03-1.32,2.98-2.95-2.52-4.25,9.99-3.99Z"/>
      <path class="cls-24" d="M1029.1,327.56c.15,1.29-.22,2.77,0,3.99,1.87,10.41,6.21,17.84-7.99,19.97-2.3.35-7.73.37-9.99,0-13.85-2.26-9.65-10.88-9.98-21.98l-12.01-1.99c13.44,1.77,26.38-.04,39.97,0Z"/>
      <path class="cls-10" d="M1103.05,291.61c-4.25,4.25-13.96,1.13-20,1.99v59.93c-4.98.28-5.9.08-9.98,0v-59.92l29.98-2Z"/>
      <path class="cls-22" d="M1456.8,275.63v3.99h-151.89c.4-.85-1.18-3.62,1.24-4.09,50.18.87,100.49-.86,150.65.09Z"/>
      <path class="cls-27" d="M247.65,355.52c-9.37,8.16-20.18,4.45-20.16-8.99.03-21.48,10.48-6.42,15.53-5.45,10.49,2.01,29.04-4.9,28.6,10.43l-21.97-1.98c-.35,1.17.37,3.44,0,3.99-.63.91-1.21,1.31-2,2Z"/>
      <path class="cls-27" d="M366.86,337.89l16.48,11.06-7.12,12.26c-17.99,4.04-23.43-14.09-9.36-23.32Z"/>
      <path class="cls-22" d="M1454.8,571.24l-4.89,2.09c-63.55-4.8-135.69,6.05-198.2.06-4-.38-4.82-1.63-6.76-2.14h209.85Z"/>
      <path class="cls-22" d="M1454.8,559.26h-205.85v-2c65.73,3.31,135.72-4.39,200.97-.09,2,.13,4.68-.6,4.89,2.09Z"/>
      <path class="cls-10" d="M705.33,445.41c-.27,1.14.21,2.74,0,3.99-1.64,9.58-2.88,17.99-2,27.96-.09.64.03,1.34,0,2-17.35,8.67-8.23-26.79-7.98-35.96l9.98,2Z"/>
      <path class="cls-2" d="M1456.8,279.62h31.98c.08.65-.11,1.35,0,2h-185.87c.09-.57,1.68-1.32,2-2h151.89Z"/>
      <path class="cls-27" d="M313.61,327.56c.82,2.84,2.77,8.04,4,11.98-3.65,3.94-5.54,9.21-11.99,7.99-1.76-.33-5.18-3.98-8-5.01-3.19-1.16-7.47-1.83-9.99-2.98,2.56-2.91,6.46-3.26,9.99-3.99,2.31-.48,5.42.66,7.88-.17.79-1.68-.37-4.79.11-5.82.57-1.2,6.12-2.22,7.99-2Z"/>
      <path class="cls-23" d="M1502.76,259.65c1.72-1.45-1.63-5.98,11.13-4.15,4.74.68,2.34,3.7,2.86,4.15.31.27,2.83-.46,4.09,1.3,2.7,3.78,2.75,31.77,1.8,37.55-.93,5.65-12.88,16.7.1,15.08-8.69,8.9-17.83,9.16-25.98,0l7.98,1.99c-.15-1.86.42-4.32.01-5.98,4.76,1.1,12.03-.09,13.59-5.4,1.43-4.86.92-42.04-1.6-44.54h-13.99c-2.45,2.45-2.83,35.54-2.12,41.06.67,5.17,3.42,6.08,4.12,8.87-6.57-1.52-6.19-11.51-11.98-9.98.09,2.63-.2,5.35-.01,7.98-2.37-4.05-3.3-11.19-4-15.98-.45-3.1.52-6.98,0-9.99,7.38-1.85.52,7.52,7.98,5.98.91-7.01-2.03-21.1,1.92-26.66,1.25-1.76,3.77-1.03,4.09-1.3Z"/>
      <path class="cls-10" d="M705.33,491.35c.52.84,1.13,1.52,2,2-1.03,7.08,10.91,22.07,4.1,27.07l-5.98.81c-1.89-8.29-17.55-29.44-.11-29.88Z"/>
      <path class="cls-8" d="M699.59,433.14c-3.67-5.71,10.42-40.97,17.41-21.05-4.45,5.4-5.16,14.91-8.03,19.98-2.3,4.06-7.83,3.48-9.38,1.07Z"/>
      <path class="cls-22" d="M1093.05,515.31l1.99,117.86c4.03.34,9.21-1.67,12,1.99h-14s.01-119.84.01-119.84Z"/>
      <path class="cls-5" d="M1454.8,501.33v45.94l-5.52-.54-.48-3.46c-1.12-13.93,4.54-26.23,0-39.95.32.01,3.87-3.02,6-2Z"/>
      <path class="cls-23" d="M1670.64,475.37c-7.4-18.11,8.34-46.85-15.99-55.93.11,0-.3-1.95,1.04-2.01,3.7-.16,12.19,6.17,13.97,9.98,5.15,11.02,3.82,35.99.98,47.96Z"/>
      <path class="cls-2" d="M201.69,391.48c1.92-.23,4.03.1,6,0s4,.05,6,0c-3.15,5.51-1.9,11.96-2,17.98h-2c-.22-1.06-1.75-1.55-2-2-2.01-3.56-4.42-5.99-7.99-7.99-1.2-.67-1.34-1.98-4-2v-3.99c.71-2.71,3.97-1.75,6-2Z"/>
      <path class="cls-17" d="M1073.07,293.6v2h-25.99c-1.14,9.23,2.56,22.08-1.99,29.96v-33.97c9.03,1.03,20.03-2.38,27.98,2.01Z"/>
      <path class="cls-22" d="M1091.06,513.32h-47.98s.01-25.97.01-25.97c4.35,4.31.68,12.65,2.4,18.57,3.34,11.5,36.77.97,45.57,7.39Z"/>
      <path class="cls-13" d="M1021.11,351.53c-1.85,5.86-1.22,12.37-2,17.98h-7.99c-.47-5.91.32-12.04,0-17.98,2.26.37,7.69.35,9.99,0Z"/>
      <path class="cls-6" d="M1015.11,431.42c21.44-2.83,52.81,3.81,72.95,0,5.08-.96,5.29-3.55,4.99-8,.13,2.76,5.06,7.96-5.05,9.93-9.93,1.94-56.92,1.46-68.11.18-2.99-.34-2.81-.63-4.78-2.12Z"/>
      <path class="cls-6" d="M1398.84,543.28c.2,1.74-.56,3.76,2,3.99,13.67-1.42,31.62,2.85,43.97-2,1.29-.51,3.38-2.54,4-2l.48,3.46,5.52.54-2.89,2.05-101.03-.05v-2c11-1.9,31.05,2.6,40.66.03,2.11-.56,1.13-3.91,1.31-4.03.25-.17,5.23-.24,6,0Z"/>
      <path class="cls-23" d="M1488.77,279.62h-31.98v-3.99c6.79.13,29.45-2.22,31.98,3.99Z"/>
      <path class="cls-22" d="M1342.88,547.27v2c-15.3,0-30.67.09-45.97,0v-2h45.97Z"/>
      <path class="cls-24" d="M1019.11,369.5c-2.01,14.42-6.92,13.63-7.99,0h7.99Z"/>
      <path class="cls-6" d="M1282.92,547.27v2c-8.47-.1-23.55,1.81-29.98-2,8.81,1.04,20.68,0,29.98,0Z"/>
      <path class="cls-23" d="M1586.7,401.46l-11.99-7.99c.29-.01,1.35-1.97,3.03-1.96,5.64,0,7.12,6.18,8.96,9.95Z"/>
      <path class="cls-23" d="M1528.75,291.61c-.32,7.08.47,8.99-2,15.98,1.12-7.12-2.52-21.19,2-25.97-.09,3.32.15,6.67,0,9.99Z"/>
      <path class="cls-23" d="M1650.66,419.44c-7.97-.04-16.01.16-23.98,0,5.33-3.33,18.24-3.4,23.98,0Z"/>
      <path class="cls-2" d="M1262.93,281.62c-6.44.52-13.71-.73-19.99,0,4.04-3.32,15.56-3.41,19.99,0Z"/>
      <path class="cls-17" d="M1043.09,327.56c-4.74,2.85-8.98,2.51-13.99,3.99-.22-1.23.15-2.71,0-3.99,4.66.01,9.33,0,13.99,0Z"/>
      <path class="cls-22" d="M1290.91,547.27v2c-2.66-.02-5.33.03-7.99,0v-2h7.99Z"/>
      <path class="cls-27" d="M805.26,443.41l-7.99,2c.41-.02,5.48-1.51,7.99-2Z"/>
      <path class="cls-2" d="M1532.74,279.62c-.7,1.63-3.6,1.58-4,2,.02-.66-.04-1.34,0-2,1.33,0,2.66,0,4,0Z"/>
      <path class="cls-17" d="M1448.8,373.5c-.58,5.15,2.31,9.98,2.22,15.05-.06,3.62-2.22,7.02-2.22,7.92v33.96c0,8.52,1.66,21.97,2,32.05.13,3.85-2.04,8.02,4,6.9-.02.67.02,1.33,0,2-5.72-2.08-4.64-3.17-9.99-2v-95.88h4Z"/>
      <path class="cls-17" d="M1252.94,547.27c-.7-.08-1.48.17-2,0v-2c.76.5,1.33,1.6,2,2Z"/>
      <path class="cls-22" d="M207.68,407.46l-7.99-7.99c3.57,1.99,5.99,4.43,7.99,7.99Z"/>
      <path class="cls-22" d="M1350.87,549.27c-.67,0-1.33,0-2,0v-2h2v2Z"/>
      <path class="cls-25" d="M245.66,427.43h72.95c7.37,14.2,2.67,34.08,2.92,51.02.13,9.25,6.28,18.94-2.92,26.88h-69.95l-3-3v-74.9ZM255.65,493.34h52.96l3-3v-49.93l-3-3h-47.97c-.66,0-3.03,2.65-5,2v53.93Z"/>
      <path class="cls-25" d="M465.16,427.8c5.07,2.95,28.62,58.11,36.75,66.1l1.38,9.24c-2.28,3.4-78.52,3.65-81.87,1.31s-2.01-8-.99-11.21c1.58-4.92,29.54-55.29,33.39-60.51,2.56-3.47,6.57-7.72,11.34-4.94ZM487.48,493.34c-2.06-3.82-25.22-50.01-27.96-47.93l-24.01,47.93h51.96Z"/>
      <path class="cls-6" d="M244.66,615.18c-7.18-2.12,1.98-16.01,3.95-20.02,6.59-13.38,21.57-43.09,30.11-53.8,3.5-4.39,7.24-6.55,10.64-.81l38.27,69.72-3.03,4.9h-79.94ZM309.61,605.2c-4-12.29-12.42-30.33-19.6-41.33-1.43-2.19-4.07-7.39-7.35-6.6l-24.22,43.8,2.21,4.14h48.97Z"/>
      <path class="cls-26" d="M365.04,427.91c57.66-9.82,61.67,73.73,11.23,77.28s-56.41-69.59-11.23-77.28ZM371.1,437.78c-43.01,4.96-25.26,70.58,14.47,52.58,26.68-12.09,14.82-55.95-14.47-52.58Z"/>
      <path class="cls-6" d="M411.54,571.24c.79,6.93-.29,13.31-2,19.97-.17.65.19,1.43,0,2l-2,2c-.55,1.11-1.59,3.37-2,3.99l-21.98,15.98c-1.33,0-2.68.07-4,0-13.13-.68-20.23-.64-31.98-7.99-1.63-2.22-5.02-6.18-6-7.99l-2-2c-21.99-44.89,33.9-80.51,62.8-45.78,4.23,5.08,8.4,13.23,9.15,19.82ZM369.09,549.7c-29.65,4.28-31.29,48.59-1.62,54.62,42.21,8.57,43.42-60.65,1.62-54.62Z"/>
      <path class="cls-25" d="M495.48,593.21l-2,3.99c-.14.63.13,1.36,0,2-3.41,1.85-3,5.14-4,7.99-.69,1.97-.71,4.21-2,5.99l-2,2c-.66.05-1.34-.07-2,0-14.43,1.56-31.23-1.14-45.97,0-2.66-1.76-2.66-4.15-4-5.99l-2-2c-.25-.53.25-1.43,0-2l-2-2c-.39-.98.38-2.99,0-3.99-3.51-9.23-6.3-18.81-9.99-27.96.51-.36-.73-4.99,4.94-6.03l76.16,1.91c2.22,3.06-3.74,20.7-5.15,26.09ZM487.48,575.24h-53.96l9.91,29.05,33.14,1.05,3.14-1.32,7.77-28.78Z"/>
      <path class="cls-22" d="M379.56,387.48v2l-105.92,2c-4.66.01-9.33-.02-13.99,0-7.4-3.33-22.17-3.38-29.98,0-5.32.06-10.68-.14-15.99,0-1.99.05-4.01-.1-6,0v-3.99c55.95-3.57,115.55,2.66,171.88,0Z"/>
      <path class="cls-13" d="M419.53,571.24c3.69,9.16,6.48,18.74,9.99,27.96l-11.02-13.97-8.97,5.98c1.71-6.67,2.79-13.05,2-19.97,1.9-.43,7.13.61,7.99,0Z"/>
      <path class="cls-2" d="M379.56,389.48c-.21,2.5-2.99,1.92-4.86,2.1-30.29,2.88-69.64-.18-101.06-.1l105.92-2Z"/>
      <path class="cls-13" d="M379.56,615.18c1.18,5.77-3.23,4.2-6.99,4.08-5.78-.19-16.15-2.04-20.93-5.17-4.12-2.7-2.94-5.37-4.06-6.89,11.75,7.35,18.85,7.31,31.98,7.99Z"/>
      <path class="cls-13" d="M483.49,615.18c-1.59,4.89-4.49,3.75-8.35,3.54-11.45-.61-22.99-2.69-34.65-1.58-1.63.24-2.24-1.49-2.96-1.97,14.74-1.14,31.54,1.56,45.97,0Z"/>
      <path class="cls-2" d="M259.65,391.48c-9.97.04-20.01-.11-29.98,0,7.81-3.38,22.58-3.33,29.98,0Z"/>
      <path class="cls-13" d="M383.56,615.18l21.98-15.98c-3.72,5.66-9.25,10.22-13.23,15.76-6.05,4.12-7.65.22-8.76.22Z"/>
      <path class="cls-13" d="M493.48,599.21c-.48,2.31.38,5.48,0,8h-3.99c1-2.86.58-6.15,4-8Z"/>
      <path class="cls-13" d="M493.48,597.21l2-3.99c-.72,2.75-1.95,3.78-2,3.99Z"/>
      <path class="cls-13" d="M407.54,595.21l2-2c-.44,1.3-1.87,1.73-2,2Z"/>
      <path class="cls-13" d="M341.59,599.21c-.34-.63-1.6-1.19-2-2l2,2Z"/>
      <path class="cls-13" d="M431.52,605.2c-.06-.13-1.39-.47-2-2l2,2Z"/>
      <path class="cls-13" d="M433.52,609.19c-.38-.52-1.47-.89-2-2l2,2Z"/>
      <path class="cls-13" d="M485.49,615.18l2-2-2,2Z"/>
      <path class="cls-25" d="M898.75,384.04c87.26-10.52,128.43,99.84,55.45,147.3-55.07,35.81-128.76-7.31-124.92-72.93,2.17-36.97,32.46-69.91,69.47-74.37ZM902.74,394.04c-100.79,11-67.69,170.91,32.97,134.81,76.76-27.53,47.59-143.6-32.97-134.81Z"/>
      <path class="cls-3" d="M821.25,523.3c-.15.63.15,1.37,0,2l-35.43-11.58c-2.39-.33-15.57,2.6-18.54,3.59,9.83-11.1,25.84-9.55,39.14-9.9,2.63-.07,4.39-2.04,4.83-2.08,11.91-1.19,12.15,9.23,9.99,17.98Z"/>
      <path class="cls-3" d="M1492.77,307.59c-.18-2.63.11-5.35.01-7.98,5.79-1.53,5.41,8.46,11.98,9.98.41,1.66-.16,4.12-.01,5.98l-7.98-1.99c-.61-.69-1.35-1.33-2-2s-1.3-1.37-2-2c-.13-.58.05-1.31,0-2Z"/>
      <path class="cls-23" d="M1494.77,311.58c-.92-.31-1.78-1.06-2-2,.7.63,1.34,1.33,2,2Z"/>
      <path class="cls-26" d="M1476.78,443.41c5.49,9.27,7.08,1.95,9.99,0v205.74s159.89,0,159.89,0l-157.88,2.02c2.46,4.25,10.32,1.93,9.98,9.97-9.94-.46-19.82,1.74-21.86-11.11,4.12-66.68-5.95-140.83-.13-206.61Z"/>
      <polygon class="cls-20" points="1101.05 645.15 1099.06 661.14 950.05 661.25 947.37 660.91 945.16 645.15 1101.05 645.15"/>
      <polygon class="cls-20" points="1095.05 265.64 1095.05 281.62 937.17 281.62 937.48 268.94 940.16 265.64 1095.05 265.64"/>
      <path class="cls-20" d="M1035.1,317.57h-37.97v-25.97h34.98c6,6.35,1.85,17.68,3,25.97Z"/>
      <path class="cls-21" d="M1510.76,441.41h2c.33.23-.32,1.63,0,2,2.42,2.74,5.41,9.99,6,9.99h96.93c2.42,0,7.24-10.61,10.32-11.66,5.31-1.82,14.68.57,20.67-.33v207.74s-159.91,0-159.91,0v-205.74c6.38-4.27,16.18-1.1,23.99-2ZM1504.77,491.36c-3.68,5.87,13.74,22.33,16.7,21.82,4.84-5.77,30.86-26.53,29.25-32.78-3.3-12.84-25.99,18.23-29.25,18.8-3.82.67-9.46-11.35-16.71-7.84ZM1569.72,491.35c14.82,2.49,43.36,0,59.96,0,3.76,0,3.76-9.99,0-9.99h-61.96c-2.7,0-6.19,8.61,2,9.99ZM1566.72,501.33l3,9.99h37.97c3.76,0,3.76-9.99,0-9.99h-40.97ZM1524.75,547.27h-9.99c-1.65-1.35-1.85-5.5-6.97-3.98-10.94,3.24,8.15,22.59,13.69,23.81,7.96-7.15,14.98-15.01,23.26-21.83,3.3-2.72,11.78-3.11,9.99-11.98-1.19-.33-3.32.37-3.99,0-1.65-.94-3.97-3.55-5.33-3.72-3.04-.39-15.91,14.29-20.65,17.7ZM1564.72,543.28c.24,2.7,3.95,5.94,4,11.98.02,3.02-4.19,3.62,0,9.99,4.21,6.39,22.81,4.32,31.07,4,3.85-.15,8.02,2.05,6.9-4,.66-.05,1.33.04,2,0l2-2-2-5.99-2-2c-3.99-.09-8,.14-11.99,0,.85-3.06-2.76-7.62,2.93-8.01,9.09-.61,23.99,2.23,31.04-1.98,7.99-4.78,3.64-5.69-2-7.99-7.99-3.27-13.6-1.76-21.98-2-8.95-.25-41.02-3.84-39.97,7.99ZM1512.76,611.19c-4.58,4.34-14.08,4.12-9,15.97,9.6,10.02,11.34-.1,15-3.99,1.25-1.33,2.49-2.22,4-3.99,1.99-2.35,5.39-3.8,6-7.99,13.93-3.12,23.76,2.66,23.97-19.96-8.97-1.18-7.51,11.08-17.93,5.93-3.23-4.72,17.39-26.13-4.84-15.72-13.91,6.51-4.7,17.9-17.19,29.76ZM1632.67,591.22h-64.95l-2.99,4.96c1.58,1.72,3.01,3.89,5.4,4.6,3.75,1.12,55.87,1.24,59.26.14l3.28-9.7ZM1608.69,619.18l-3.28-9.7c-6.19-.11-38.48-1.58-40.68,1.74-1.13,1.7.95,7.97,2.99,7.97h40.97Z"/>
      <path class="cls-3" d="M801.26,543.28c.19,0,.73-2.2,3.75-1.08,2,.74,8.9,5.32,8.24,8.04-8.34,4.87-17.93,7.16-17.96,18.98,8.66,4.32,13.5-.76,21.97-1.97-6.01,6.66-13.49,19.82-23.95,14.96-1.06-.49-10.55-9.96-11.04-11-4.83-10.27,15.01-19.28,19-27.92Z"/>
      <path class="cls-23" d="M710.54,647.32c8.64-2.76,11.81,7.48,6.9,10.92-8.68,6.08-14.58-8.47-6.9-10.92Z"/>
      <path class="cls-3" d="M799.26,605.2c-3.3.62-9.91,5.38-13.99,0,4.5-.47,9.42.33,13.99,0Z"/>
      <path class="cls-3" d="M779.28,607.19c.6-.48,1.08-1.74,2-2l-2,2Z"/>
      <path class="cls-3" d="M793.27,479.36c.09,1.92,2.81,7.13,1.99,7.98h-5.99c-15.06-4.08-25.7,11.65-37.45,6.51-3.57-1.56-7.71-7.86-11.52-7.84-3.45.92-6.06,3.49-8.99,5.34l7.61-6.31.18-5.46c-10.93-3.93-21.55-11.06-33.67-10.08,1.08,3.1-1.87,6.35-2.09,7.88-.88-9.97.36-18.39,2-27.96,25.59-.51,38.86,18.7,61.52,25.4,9.13,2.7,17.81,2.78,26.42,4.56Z"/>
      <path class="cls-3" d="M727.31,495.34l-4,3.99c.31-.44-.64-2.71.32-3.66s3.33-.04,3.67-.33Z"/>
      <path class="cls-29" d="M1250.94,545.28c-2.18-1.82-2.02-4.22-2.14-6.76-2.69-54.81,2.31-111.98.15-167.02h41.97v12s-33.98-.01-33.98-.01c-3,.99-2.58,19.3-2.09,23.06,2.04,15.54,24.92,6.68,36.07,8.9v131.83h-7.99c-9.3,0-21.16,1.04-29.98,0-.67-.4-1.24-1.49-2-2Z"/>
      <path class="cls-3" d="M1398.84,343.54c51.93-.15,103.97.12,155.9-.01,1.31,1.31-1.11,31.16-.06,37.03.9,5.04,9.06,4.58,6.04,12.91-2.17.27-3.53-.1-5.93,1.01-1.3.6-1.47,2.39-2.06,2.99-.65.65-1.47,1.27-2,2-4.43,6.1-1.05,8.09-9.99,11.98l-7.99-1.99v3.99c-2.64.23-5.36-.16-8,0h-2c.35-1.75-.24-4.09,0-5.99,6.91-1.25,6.8,1.18,13.99-3.99.67-.48,1.39-1.36,2-2,.65-.68,1.42-1.24,2-2,.34-.45,3.84-5.67,4-5.99,2.56-5.11,4.08-14.88,0-19.97l-2-2c-11.49-3.26-26.95-2.52-39.12-2.08-3.77.14-7.31,2.03-8.85,2.08-.67.02-1.33-.02-2,0-2.08-3.31-7.58-1.99-10.96-2.03-17.65-.22-35.36.04-52.99.03v-5.97c-5.83.01-11.46.09-15.99-4.02h16.98c4.37-10.29-9.28-8.97-15.8-6.17l-1.17,6.17c-1.61-1.46-1.7-4.49-3.44-6.05-3.45-3.09-10.82-3.59-10.55-9.93ZM1482.65,353.69l-16.55-1.85-3.3,7.67h19.99s-.14-5.82-.14-5.82ZM1532.75,353.53h-18.01v5.98h18.01v-5.98Z"/>
      <path class="cls-9" d="M1428.82,371.5c5.33.04,11.73-1.43,15.99,2v95.88c-3.66.8-7.59,5.36-11.96-1l4.04-5.98c-9.95-3.88.61-26.29-6.07-32.97-3.68-3.68-25-1.96-31.98-2v-51.93c.32-.39-1-3.48,1.27-4.06,5.17-1.32,21.79.02,28.71.07Z"/>
      <path class="cls-27" d="M1398.84,343.54c-.27,6.35,7.1,6.84,10.55,9.93,1.74,1.56,1.83,4.59,3.44,6.05,4.53,4.11,10.16,4.04,15.98,4.02v5.97c-25.2-.01-53.11,1.58-77.93,0-2.02-6.76-10.41-16.11-17.99-15.98l-2-2v-7.99c22.51-.83,45.41.06,67.95,0ZM1380.71,353.69c-6.35-2.6-12.28-3.06-18.68-.34l-1.18,6.16h20.01l-.15-5.82Z"/>
      <path class="cls-10" d="M1352.87,389.48v17.99c-3.97.11-8.01-.15-11.99-.01-14.57.52-29.37-.11-43.97,0-2,.02-4-.02-6,0-9.35.12-19-1.09-27.98,2-2.2-7.16-2.65-12.15-2.01-19.98,28.91,2.62,63.8-3.49,91.94.01Z"/>
      <path class="cls-3" d="M1262.93,351.53c-.3,0-2.03-3.33-4.02-1.1-2.53,2.3-2.73,6.88-1.75,9.89,1.21,3.7,7.47,1.4,5.76,7.18l-16.11-1.15-1.88,15.15h-5.99v-37.96l68.62,2.33,3.35,2.71-3.89,10.84c1.13.51,3.48-.25,3.87.09,1.74,1.49,5.53,8.52,3.99,9.98-13.74.45-27.3-1.25-41.01-1.98-5.9-.31-2.5-3.42-.95-6,9.61,1.09,11.26-8.5,2.97-9.98-3.74-.67-8.89.03-12.97,0Z"/>
      <path class="cls-9" d="M1358.87,391.48c1.31-10.24-1.06-8.17-10-7.98v-12.01s42.71-.06,42.71-.06c2.27.58.96,3.67,1.27,4.06v51.93c-3.99-.05-8,0-11.99,0l3.95-10.89c-9.89-4.1-4.17-10.66-6.82-19.2-2.78-4.02-13.46-.7-17.87-1.77-2.32-.56-.96-3.83-1.25-4.09Z"/>
      <polygon class="cls-29" points="1342.88 373.5 1342.89 383.5 1298.06 383.52 1296.91 373.5 1342.88 373.5"/>
      <path class="cls-17" d="M1396.84,375.5c.67-.22,1.77.29,2,0v51.93c-2,0-4,.02-6,0v-51.93c.23.29,1.33-.22,2,0l1,1.96,1-1.96Z"/>
      <path class="cls-3" d="M1350.87,369.5c-6.83-.44-13.46-1.06-20.07-2.94-2.82-1.87-1.38-4.99-1.92-7.04,1.3-.15,2.69.17,3.99,0v-6c7.58-.13,15.98,9.22,17.99,15.98Z"/>
      <path class="cls-17" d="M1272.93,361.51c-2.39-.27-7.5-3.97-11.99-2.01l2-7.98c4.08.04,9.22-.66,12.97,0,8.29,1.48,6.63,11.07-2.97,9.98Z"/>
      <path class="cls-22" d="M1290.91,407.46v5.99c-8.81-.86-19.5,1.2-27.98,0-.21-1.25.32-2.96,0-3.99,8.98-3.09,18.63-1.88,27.98-2Z"/>
      <path class="cls-6" d="M1492.77,371.5c-14.35.51-30.71-2.06-43.97,2h-4c-4.26-3.43-10.66-1.96-15.99-2v-2c17.63,0,35.34-.25,52.99-.03,3.38.04,8.89-1.28,10.96,2.03Z"/>
      <path class="cls-13" d="M1310.9,359.52v-5.98s16.81-.05,16.81-.05c2.47.35.72,4.29,1.18,6.03-5.67.64-12.18-.46-17.99,0Z"/>
      <path class="cls-5" d="M1342.88,373.5h-45.97c13.6-3.34,32.37-3.34,45.97,0Z"/>
      <path class="cls-3" d="M1330.89,343.54v7.99l-12.01-2v-5.98c3.99-.15,8.02.14,12.01,0Z"/>
      <path class="cls-17" d="M1256.94,383.49l-.07,26.62c.34,1.41,4.78,3.16,6.07,3.34,8.48,1.2,19.17-.86,27.98,0v2c-11.15-2.22-34.02,6.65-36.07-8.9-.49-3.76-.91-22.07,2.09-23.06Z"/>
      <polygon class="cls-6" points="1394.84 375.5 1396.84 375.5 1395.84 377.45 1394.84 375.5"/>
      <path class="cls-3" d="M251.65,369.5c-1.56,10.43-14.86,5.92-21.98,3.99,8.41.49,14.7.58,21.98-3.99Z"/>
      <path class="cls-3" d="M207.68,387.48v3.99c-1.97.1-4.08-.23-6,0v-3.99c1.98-.17,4.01.12,6,0Z"/>
      <path class="cls-3" d="M223.67,371.5c-3.53-2.11-6.02-4.32-7.99-7.99l7.99,7.99Z"/>
      <polygon class="cls-3" points="195.69 395.47 193.72 394.46 195.69 393.47 195.69 395.47"/>
      <path class="cls-3" d="M825.24,545.28c2.09,12.36-8.66,2.49-5.99.01h5.99Z"/>
      <path class="cls-17" d="M1500.76,375.5v33.96c-1.98.14-4.01-.11-6,0v-33.96h6Z"/>
      <path class="cls-6" d="M1542.74,371.5c-3.6-.75-37.71-.81-40.66-.03-1.71.46-1.49,2.65-1.31,4.02h-6v-3.99c1.54-.05,5.07-1.95,8.85-2.08,12.16-.44,27.63-1.18,39.12,2.08Z"/>
      <path class="cls-21" d="M1296.91,415.44h45.98s0,10,0,10c-26.73-4.24-19.21,13.07-20.01,31.96l16.72.27,3,3,.28,86.61h-45.97v-131.83Z"/>
      <path class="cls-29" d="M1352.87,457.39c11.66-1.5,25.96,1.09,37.97,0,.39,1.72,1.91,2.82,2.14,6.75,1.51,25.78-1.42,53.19-.15,79.13-.18.12.8,3.46-1.31,4.03-9.61,2.57-29.66-1.93-40.66-.03h-2l.5-89.5c1.09-.8,2.4-.24,3.5-.38Z"/>
      <path class="cls-1" d="M1350.87,433.42c23.51-.32,47.14,0,70.67.28l3,2.99.28,14.71c-1.32.08-2.67-.07-4,0-9.88.51-20.06-.05-29.98,0-12.63.07-25.34-.1-37.97,0-6.65.05-13.34-.04-19.99,0l-2-2c-.05-.66,0-1.34,0-2,0-2.66,0-5.33,0-7.99.58-.97-1.34-5.48,1.08-6.12,6.3.12,12.63.22,18.91.13Z"/>
      <path class="cls-15" d="M1372.86,427.43c2.54.02,5.45,0,7.99,0,3.99,0,8-.05,11.99,0,2,.02,4,0,6,0,6.98.03,28.3-1.68,31.98,2h-3.99s1.98,21.98,1.98,21.98c-1.32.11-2.67-.09-3.99-.01l-.28-14.71-3-2.99c-23.53-.29-47.16-.6-70.67-.28-.27-1.87.4-4.34,0-5.99,7.31.05,14.67-.07,21.98,0Z"/>
      <path class="cls-9" d="M1350.87,427.43c-.76-3.13-3.71-5.33-1.77-10.74l10.91-5.1,1.98-10.18,10.87.05c.31,7.96,1.87,11.55-6.02,15.02l6.02,10.95c-7.31-.07-14.67.05-21.98,0Z"/>
      <path class="cls-22" d="M1340.88,407.46c.24,6.98,1.24,5.52-4.9,6-12.63.99-26.32-.73-39.07,0v-5.99c14.6-.11,29.39.52,43.97,0Z"/>
      <path class="cls-15" d="M1390.84,451.4c.26,1.88-.39,4.3,0,5.99-12.02,1.09-26.31-1.5-37.97,0v-5.99c12.63-.1,25.34.07,37.97,0Z"/>
      <path class="cls-23" d="M1296.91,407.46v9.99h-6v-9.99c2-.02,4,.02,6,0Z"/>
      <path class="cls-15" d="M1330.89,439.41c0,2.66,0,5.33,0,7.99h-3.99c-2.43-9.15,3.71-7.51,3.99-7.99Z"/>
      <path class="cls-15" d="M1332.88,451.4l-1.97,1.99c-.12-1.31.08-2.67-.02-3.99l2,2Z"/>
      <polygon class="cls-5" points="1073.07 397.47 1063.08 397.47 1063.08 357.52 1069.83 357.76 1072.79 360.8 1073.07 397.47"/>
      <path class="cls-28" d="M1083.06,397.47c-1.94-9.47-3.73-25.65-2-34.96.89-4.77,2.57-4.99,6.98-5.04,4.74-.05,2.72,1.26,3.02,4.95.9,11.31-.58,23.59,0,35.04h-7.99Z"/>
      <path class="cls-3" d="M287.63,339.54c-21.14-9.65,5.81-19.25,9.99-3.99-3.53.74-7.43,1.09-9.99,3.99Z"/>
      <path class="cls-27" d="M285.63,351.53c.67.12,1.41-.16,2,0,3.88,2.04,4.71,3.36,4,7.98l-13.99-1.99c-.53-.72-1.45-1.26-2-2v-6c3.34.72,6.62,1.43,9.99,2Z"/>
      <path class="cls-3" d="M287.63,351.53c2.6.7,5.29,1.15,7.79,2.18l-1.67,8.92c-8.48,2.68-11.39,1.36-16.11-5.11l13.99,1.99c.71-4.62-.12-5.94-4-7.98Z"/>
      <path class="cls-4" d="M1574.71,419.44c2.36-3.12,4.01-3.03,3.2-8.05-1.31-8.12-7.35-5.58-7.19-11.91,10.49-2.48,12.62,14.42,17.96,16.98,13.16,6.3,26.06-8.74,19.97,22.93l-82.04,1.15c-3-2.08-3-20.13,0-22.22,11.87-2.23,23.83,3.42,26.14-12.85,7.76-1.91,1.89,8.77,4.31,11.72.74.9,3.42,0,3.65.26.8.94,1.13,2.92,2,3.99l.93,1.63c.47.05.88-1.64,1.07-1.63,1.88.02,4.31.29,6,0,.17-.03-.88,1.64,2,0,.44-.25,1.6-1.47,2-2Z"/>
      <path class="cls-6" d="M1560.72,417.44c-.34-18.32,16.11-12.95,13.99,2-.4.53-1.56,1.75-2,2h-2c-1.68.29-4.11.02-6,0h-2c-.87-1.07-1.19-3.06-2-3.99Z"/>
      <path class="cls-23" d="M1540.74,411.45c-3.9,1.7-3.58,1.61-7.99,2v-3.99s7.99,1.99,7.99,1.99Z"/>
      <path class="cls-23" d="M1550.73,399.47c.53-.73,1.35-1.35,2-2l-2,2Z"/>
      <path class="cls-23" d="M1520.75,439.41c-.2-.39-1.43-.43-1.97-.99l1.97-1.01v2Z"/>
      <path class="cls-23" d="M1520.75,417.44c.1-1.08,1.75-2.74,2-3.99h2l-4,3.99Z"/>
      <path class="cls-19" d="M1542.74,371.5l2,2v19.97c-.16.32-3.65,5.54-4,5.99l-2,2c-.61.64-1.33,1.52-2,2-6.16.14-13.88-1.61-17.99,3.99-.65.09-1.34-.07-2,0l-2,2c-4.61.36-9.37-.32-13.99,0v-33.96c-.18-1.38-.39-3.57,1.31-4.02,2.94-.78,37.05-.72,40.66.03Z"/>
      <path class="cls-23" d="M1536.74,403.46c-7.19,5.17-7.08,2.75-13.99,3.99-1.23.22-2.72-.17-4,0,4.11-5.61,11.83-3.86,17.99-3.99Z"/>
      <path class="cls-17" d="M1514.75,409.45l2-2c-.5.06-1.45,1.96-2,2Z"/>
      <polygon class="cls-23" points="1512.76 441.41 1510.76 441.41 1511.76 439.45 1512.76 441.41"/>
      <path class="cls-17" d="M1420.82,451.4l.1,5.88,9.86,3.11-3,2.99-6.96-2-2-2c-4.43-3.41-15.94-3.32-19.99,0-.1,3.31.15,6.67,0,9.99-.52,11.22.05,22.71,0,33.96-.04,10.59-.38,21.38,0,31.96.02.66-.04,1.33,0,2,.11,1.97-.23,4.05,0,5.99-.77-.24-5.75-.17-6,0-1.27-25.94,1.66-53.36.15-79.13-.23-3.93-1.75-5.03-2.14-6.75-.39-1.69.26-4.11,0-5.99,9.92-.05,20.09.51,29.98,0Z"/>
      <path class="cls-9" d="M1418.82,459.39l2,2c0,1.33-.01,2.66,0,3.99.02,2-.01,3.99,0,5.99-4.72.51-13.29.53-17.99,0-.6-.07-2.5-2.17-4-2,.15-3.31-.1-6.68,0-9.99h19.99Z"/>
      <path class="cls-5" d="M1402.83,471.37v29.97c13.94.28,28.03-.42,41.97-.01v2h-45.97c.05-11.24-.52-22.74,0-33.96,1.49-.17,3.4,1.93,4,2Z"/>
      <path class="cls-17" d="M1448.8,503.33c4.54,13.72-1.12,26.02,0,39.95-.61-.55-2.71,1.49-4,2v-43.94c.96.03,2.91,1.96,4,2Z"/>
      <path class="cls-5" d="M1420.82,465.38c5.57,3.47,6.93,5.24,0,5.99-.01-2,.02-4,0-5.99Z"/>
      <path class="cls-19" d="M1516.75,259.65c2.51,2.5,3.02,39.68,1.6,44.54-1.56,5.3-8.83,6.5-13.59,5.4-.69-2.79-3.45-3.7-4.12-8.87-.72-5.52-.34-38.62,2.12-41.06h13.99Z"/>
      <path class="cls-14" d="M1444.8,503.33v41.95c-12.35,4.85-30.3.58-43.97,2,.2-2.06.25-3.28-2-3.99-.23-1.95.11-4.02,0-5.99l1.96-1-1.96-1c-.38-10.57-.04-21.37,0-31.96h45.97Z"/>
      <path class="cls-5" d="M1400.84,547.27c-2.55-.24-1.8-2.25-2-3.99,2.25.72,2.19,1.93,2,3.99Z"/>
      <path class="cls-16" d="M255.65,493.34v-53.93c1.96.65,4.34-2,5-2h47.97l3,3v49.93l-3,3h-52.96Z"/>
      <path class="cls-24" d="M487.48,493.34h-51.96l24.01-47.93c2.74-2.08,25.89,44.11,27.96,47.93Z"/>
      <path class="cls-1" d="M309.61,605.2h-48.97l-2.21-4.14,24.22-43.8c3.29-.78,5.92,4.41,7.35,6.6,7.18,11.01,15.6,29.04,19.6,41.33Z"/>
      <path class="cls-16" d="M371.1,437.78c29.29-3.38,41.15,40.48,14.47,52.58-39.73,18-57.48-47.62-14.47-52.58Z"/>
      <path class="cls-1" d="M369.09,549.7c41.81-6.03,40.6,63.18-1.62,54.62-29.68-6.02-28.03-50.34,1.62-54.62Z"/>
      <polygon class="cls-24" points="487.48 575.24 479.72 604.01 476.57 605.34 443.43 604.28 433.52 575.24 487.48 575.24"/>
      <path class="cls-29" d="M902.74,394.04c80.56-8.79,109.74,107.28,32.97,134.81-100.67,36.1-133.76-123.81-32.97-134.81ZM915.17,403.47l-9.12,1.85c-6.83,9.63,12.51,17.35,9.12-1.85ZM905.19,457.39c-.3,5.83-6.01,5.59,2,13.98,2.89,3.03,26.5,20.48,28.94,19.98,2.29-.47,3.38-4.43,3.1-6.92-.81-7.21-15.7-13.52-20.05-19.05-.84-1.07-3.82-6.89-4-7.99-1.5-9.16,1.6-21.89,0-30.95-1.26-7.1-8.71-7.1-9.97,0-1.5,8.47.47,21.55,0,30.95ZM850.53,459.66c-12.52,13.66,20.31,12.83,7.4,0h-7.4ZM962.45,459.66c-12.52,13.66,20.31,12.83,7.4,0h-7.4ZM915.17,513.32l-9.12,1.85c-6.83,9.63,12.51,17.35,9.12-1.85Z"/>
      <path class="cls-23" d="M1512.76,611.19c12.49-11.86,3.28-23.24,17.19-29.76,22.23-10.41,1.61,11.01,4.84,15.72,10.42,5.15,8.96-7.11,17.93-5.93-.21,22.63-10.04,16.84-23.97,19.96-3.2.72-5.97,4.66-6,7.99-1.5,1.77-2.75,2.67-4,3.99-7.78,2.06-9.41-6.55-6-11.98Z"/>
      <path class="cls-7" d="M1569.72,491.35c-8.19-1.38-4.7-9.99-2-9.99h61.96c3.76,0,3.76,9.99,0,9.99-16.6,0-45.14,2.49-59.96,0Z"/>
      <path class="cls-7" d="M1632.67,591.22l-3.28,9.7c-3.39,1.1-55.51.99-59.26-.14-2.39-.72-3.82-2.89-5.4-4.6l2.99-4.96h64.95Z"/>
      <path class="cls-7" d="M1550.73,533.29l-6,11.98c-8.28,6.81-15.3,14.68-23.26,21.83-5.54-1.22-24.63-20.58-13.69-23.81,5.12-1.52,5.32,2.64,6.97,3.98,1.09.89,1.5,4.65,5,4.12,3.83-.01,3.99-3.4,4.99-4.12,4.74-3.41,17.61-18.09,20.65-17.7,1.36.17,3.68,2.78,5.33,3.72Z"/>
      <path class="cls-7" d="M1604.69,535.29c5.41,4.33,15.06,1.06,21.98,2,5.63,2.3,9.99,3.21,2,7.99-21-1.18-43.49,2.51-63.95-2-1.05-11.83,31.02-8.24,39.97-7.99Z"/>
      <path class="cls-6" d="M1504.77,491.36c7.24-3.51,12.89,8.51,16.71,7.84,3.25-.57,25.95-31.63,29.25-18.8,1.61,6.25-24.41,27.01-29.25,32.78-2.97.52-20.38-15.95-16.7-21.82Z"/>
      <path class="cls-7" d="M1566.72,501.33h40.97c3.76,0,3.76,9.99,0,9.99h-37.97l-3-9.99Z"/>
      <path class="cls-6" d="M1608.69,619.18h-40.97c-2.04,0-4.12-6.27-2.99-7.97,2.2-3.32,34.49-1.85,40.68-1.74l3.28,9.7Z"/>
      <path class="cls-22" d="M1594.7,555.26c3.99.14,8-.09,11.99,0l2,2,2,5.99-2,2c-.66.04-1.34-.05-2,0-12.4.9-25.49-.65-37.97,0-4.19-6.37.02-6.96,0-9.99,8.63.21,17.36-.29,25.98,0Z"/>
      <path class="cls-13" d="M1628.67,545.28c-7.05,4.21-21.95,1.37-31.04,1.98-5.69.38-2.08,4.94-2.93,8.01-8.62-.29-17.35.21-25.98,0-.05-6.05-3.76-9.28-4-11.98,20.46,4.5,42.96.82,63.95,2Z"/>
      <path class="cls-7" d="M1512.76,611.19c-3.42,5.43-1.79,14.04,6,11.98-3.66,3.88-5.4,14-15,3.99-5.08-11.85,4.43-11.63,9-15.97Z"/>
      <path class="cls-13" d="M1606.69,565.25c1.11,6.05-3.06,3.85-6.9,4-8.26.32-26.86,2.39-31.07-4,12.48-.65,25.57.9,37.97,0Z"/>
      <path class="cls-13" d="M1550.73,533.29c.67.38,2.8-.32,3.99,0,1.79,8.86-6.69,9.26-9.99,11.98l6-11.98Z"/>
      <path class="cls-13" d="M1626.68,537.29c-6.93-.93-16.57,2.34-21.98-2,8.39.24,13.99-1.27,21.98,2Z"/>
      <path class="cls-13" d="M1524.75,547.27c-1,.72-1.17,4.11-4.99,4.12-3.5.53-3.91-3.23-5-4.12h9.99Z"/>
      <path class="cls-7" d="M1522.75,619.18c.03-3.33,2.8-7.27,6-7.99-.61,4.18-4.01,5.64-6,7.99Z"/>
      <path class="cls-13" d="M1608.69,557.26l-2-2,2,2Z"/>
      <path class="cls-13" d="M1608.69,565.25l2-2-2,2Z"/>
      <polygon class="cls-13" points="1482.65 353.69 1482.79 359.51 1462.8 359.51 1466.1 351.84 1482.65 353.69"/>
      <path class="cls-5" d="M1412.83,359.52l1.17-6.17c6.52-2.8,20.17-4.12,15.8,6.18h-16.98Z"/>
      <rect class="cls-5" x="1514.74" y="353.53" width="18.01" height="5.98"/>
      <path class="cls-6" d="M1544.73,393.47v-19.97c4.08,5.09,2.56,14.86,0,19.97Z"/>
      <path class="cls-23" d="M1538.74,401.46l2-2c-.58.76-1.35,1.32-2,2Z"/>
      <path class="cls-5" d="M1380.71,353.69l.15,5.82h-20.01l1.18-6.16c6.4-2.72,12.33-2.26,18.68.34Z"/>
      <path class="cls-28" d="M1562.72,421.44h2c-.19,0-.6,1.68-1.07,1.63l-.93-1.63Z"/>
      <path class="cls-28" d="M1570.72,421.44h2c-2.88,1.64-1.83-.03-2,0Z"/>
      <path class="cls-5" d="M1418.82,459.39h-19.99c4.04-3.32,15.56-3.41,19.99,0Z"/>
      <path class="cls-5" d="M1398.84,537.29c-.04-.66.02-1.33,0-2l1.96,1-1.96,1Z"/>
      <path class="cls-7" d="M907.19,471.37l11.99-5.99c4.34,5.53,19.23,11.83,20.05,19.05.28,2.49-.81,6.45-3.1,6.92-2.44.5-26.04-16.95-28.94-19.98Z"/>
      <path class="cls-6" d="M915.18,457.39h-9.99c.48-9.4-1.49-22.48,0-30.95,1.26-7.1,8.71-7.1,9.97,0,1.61,9.06-1.49,21.79,0,30.95Z"/>
      <path class="cls-28" d="M915.18,457.39c.18,1.1,3.16,6.92,4,7.99l-11.99,5.99c-8.01-8.39-2.29-8.16-2-13.98h9.99Z"/>
      <path class="cls-17" d="M962.45,459.66h7.4c12.91,12.83-19.92,13.66-7.4,0Z"/>
      <path class="cls-17" d="M850.53,459.66h7.4c12.91,12.83-19.92,13.66-7.4,0Z"/>
      <path class="cls-17" d="M915.17,513.32c3.39,19.2-15.95,11.48-9.12,1.85l9.12-1.85Z"/>
      <path class="cls-17" d="M915.17,403.47c3.39,19.2-15.95,11.48-9.12,1.85l9.12-1.85Z"/>
    </g>
  </g>
</svg>